<svg width="903" height="147" viewBox="0 0 903 147" fill="none" xmlns="http://www.w3.org/2000/svg">
<path d="M15.58 32.55L10.06 16.8H9.94L9.76 15.81L11.5 10.08H12.34L20.17 32.55H15.58ZM0.55 33V32.16H7.81V33H0.55ZM6.13 26.4V25.59H16.18V26.4H6.13ZM12.13 33V32.16H22.48V33H12.13ZM3.16 32.55L11.5 10.08H12.34L10.63 15.03L4.15 32.55H3.16ZM34.8152 32.55V22.17C34.8152 20.93 34.2852 20.31 33.2252 20.31C32.5652 20.31 31.9652 20.58 31.4252 21.12C30.8852 21.66 30.4452 22.4 30.1052 23.34C29.7852 24.26 29.6252 25.31 29.6252 26.49L29.0252 21.99H29.7452C30.1652 21.13 30.7452 20.44 31.4852 19.92C32.2252 19.4 33.1752 19.14 34.3352 19.14C35.5752 19.14 36.5852 19.46 37.3652 20.1C38.1452 20.72 38.5352 21.49 38.5352 22.41V32.55H34.8152ZM23.5052 33V32.16H31.5752V33H23.5052ZM25.9052 32.55V19.98H29.6252V32.55H25.9052ZM32.6552 33V32.16H40.4852V33H32.6552ZM23.5052 20.34V19.5H29.6252V20.34H23.5052ZM56.4777 33.39C55.4777 33.39 54.5377 33.19 53.6577 32.79C52.7777 32.39 51.9977 31.85 51.3177 31.17C50.6577 30.49 50.1377 29.73 49.7577 28.89C49.3977 28.03 49.2177 27.13 49.2177 26.19C49.2177 25.01 49.5077 23.89 50.0877 22.83C50.6877 21.75 51.5177 20.87 52.5777 20.19C53.6377 19.49 54.8777 19.14 56.2977 19.14C57.4377 19.14 58.4577 19.38 59.3577 19.86C60.2777 20.34 60.9977 21.03 61.5177 21.93C62.0577 22.81 62.3277 23.84 62.3277 25.02V25.29H52.2177V24.45H58.4577V22.68C58.4577 20.92 57.6977 20.04 56.1777 20.04C55.5377 20.04 55.0177 20.23 54.6177 20.61C54.2377 20.99 53.9577 21.64 53.7777 22.56C53.5977 23.48 53.5077 24.73 53.5077 26.31C53.5077 27.93 53.5977 29.18 53.7777 30.06C53.9777 30.94 54.2977 31.55 54.7377 31.89C55.1977 32.23 55.8177 32.4 56.5977 32.4C57.6577 32.4 58.5977 32.14 59.4177 31.62C60.2377 31.08 60.9277 30.16 61.4877 28.86H62.4177C61.9977 30.24 61.2577 31.34 60.1977 32.16C59.1377 32.98 57.8977 33.39 56.4777 33.39ZM74.7937 32.55L65.4937 19.8H70.0837L79.3837 32.55H74.7937ZM64.2337 33V32.16H70.1737V33H64.2337ZM66.3037 32.46L71.2537 26.52L71.7937 27.24L67.3837 32.46H66.3037ZM72.6637 33V32.16H80.7037V33H72.6637ZM64.3237 20.34V19.5H72.2137V20.34H64.3237ZM72.9337 26.19L72.3037 25.56L76.9237 20.07H78.0037L72.9337 26.19ZM74.4637 20.34V19.5H80.1037V20.34H74.4637ZM86.8422 33.36C85.7222 33.36 84.8022 33.05 84.0822 32.43C83.3622 31.81 83.0022 30.99 83.0022 29.97C83.0022 29.01 83.3322 28.19 83.9922 27.51C84.6722 26.81 85.6222 26.28 86.8422 25.92C88.0822 25.54 89.5322 25.35 91.1922 25.35V21.78C91.1922 21.26 90.9922 20.85 90.5922 20.55C90.2122 20.25 89.6922 20.1 89.0322 20.1C88.4722 20.1 88.0022 20.2 87.6222 20.4C87.2422 20.6 87.0522 20.86 87.0522 21.18C87.0522 21.42 87.1422 21.63 87.3222 21.81C87.5022 21.97 87.5922 22.24 87.5922 22.62C87.5922 23.1 87.4122 23.51 87.0522 23.85C86.6922 24.17 86.2422 24.33 85.7022 24.33C85.1822 24.33 84.7522 24.16 84.4122 23.82C84.0922 23.48 83.9322 23.05 83.9322 22.53C83.9322 21.89 84.1822 21.32 84.6822 20.82C85.1822 20.3 85.8622 19.89 86.7222 19.59C87.6022 19.29 88.5822 19.14 89.6622 19.14C91.2022 19.14 92.4622 19.43 93.4422 20.01C94.4222 20.57 94.9122 21.31 94.9122 22.23V31.14C94.9122 31.34 94.9722 31.51 95.0922 31.65C95.2322 31.77 95.3922 31.83 95.5722 31.83C95.7522 31.83 95.9422 31.75 96.1422 31.59C96.3622 31.43 96.6522 31.15 97.0122 30.75L97.5222 31.35C96.5022 32.69 95.3522 33.36 94.0722 33.36C93.3122 33.36 92.7022 33.17 92.2422 32.79C91.7822 32.41 91.4722 31.89 91.3122 31.23H91.1922C90.8122 31.79 90.2322 32.29 89.4522 32.73C88.6722 33.15 87.8022 33.36 86.8422 33.36ZM88.7622 31.71C89.4622 31.71 90.0422 31.43 90.5022 30.87C90.9622 30.29 91.1922 29.54 91.1922 28.62V26.22C89.7922 26.22 88.7222 26.5 87.9822 27.06C87.2622 27.6 86.9022 28.4 86.9022 29.46C86.9022 30.14 87.0622 30.69 87.3822 31.11C87.7022 31.51 88.1622 31.71 88.7622 31.71ZM118.775 32.55V22.17C118.775 20.93 118.265 20.31 117.245 20.31C116.625 20.31 116.045 20.58 115.505 21.12C114.965 21.66 114.535 22.4 114.215 23.34C113.915 24.26 113.765 25.31 113.765 26.49L113.165 21.99H113.885C114.285 21.13 114.845 20.44 115.565 19.92C116.305 19.4 117.235 19.14 118.355 19.14C119.575 19.14 120.565 19.46 121.325 20.1C122.105 20.72 122.495 21.49 122.495 22.41V32.55H118.775ZM98.9146 33V32.16H107.015V33H98.9146ZM101.315 32.55V19.98H105.065V32.55H101.315ZM107.915 33V32.16H115.745V33H107.915ZM98.9146 20.34V19.5H105.065V20.34H98.9146ZM110.075 32.55V22.17C110.075 20.93 109.565 20.31 108.545 20.31C107.905 20.31 107.315 20.58 106.775 21.12C106.255 21.66 105.835 22.4 105.515 23.34C105.215 24.26 105.065 25.31 105.065 26.49L104.465 21.99H105.155C105.555 21.13 106.115 20.44 106.835 19.92C107.575 19.4 108.505 19.14 109.625 19.14C110.865 19.14 111.865 19.46 112.625 20.1C113.405 20.72 113.795 21.49 113.795 22.41V32.55H110.075ZM116.615 33V32.16H124.475V33H116.615ZM136.198 33.36C135.278 33.36 134.468 33.16 133.768 32.76C133.068 32.36 132.548 31.86 132.208 31.26H131.488L132.088 26.7C132.088 28.62 132.428 30.03 133.108 30.93C133.808 31.81 134.678 32.25 135.718 32.25C136.258 32.25 136.698 32.09 137.038 31.77C137.378 31.45 137.618 30.86 137.758 30C137.918 29.14 137.998 27.91 137.998 26.31C137.998 24.67 137.918 23.41 137.758 22.53C137.598 21.65 137.348 21.05 137.008 20.73C136.668 20.41 136.228 20.25 135.688 20.25C134.648 20.25 133.788 20.69 133.108 21.57C132.428 22.45 132.088 23.86 132.088 25.8L131.488 21.24H132.208C132.548 20.64 133.068 20.14 133.768 19.74C134.488 19.34 135.308 19.14 136.228 19.14C137.268 19.14 138.248 19.44 139.168 20.04C140.088 20.62 140.828 21.45 141.388 22.53C141.948 23.59 142.228 24.83 142.228 26.25C142.228 27.67 141.938 28.92 141.358 30C140.798 31.06 140.058 31.89 139.138 32.49C138.218 33.07 137.238 33.36 136.198 33.36ZM126.208 42.42V41.58H135.088V42.42H126.208ZM128.368 41.97V19.98H132.088V41.97H128.368ZM125.968 20.34V19.5H132.088V20.34H125.968ZM147.4 32.55V10.86H151.12V32.55H147.4ZM145 33V32.16H153.43V33H145ZM145 11.22V10.38H151.12V11.22H145ZM163.195 33.39C162.195 33.39 161.255 33.19 160.375 32.79C159.495 32.39 158.715 31.85 158.035 31.17C157.375 30.49 156.855 29.73 156.475 28.89C156.115 28.03 155.935 27.13 155.935 26.19C155.935 25.01 156.225 23.89 156.805 22.83C157.405 21.75 158.235 20.87 159.295 20.19C160.355 19.49 161.595 19.14 163.015 19.14C164.155 19.14 165.175 19.38 166.075 19.86C166.995 20.34 167.715 21.03 168.235 21.93C168.775 22.81 169.045 23.84 169.045 25.02V25.29H158.935V24.45H165.175V22.68C165.175 20.92 164.415 20.04 162.895 20.04C162.255 20.04 161.735 20.23 161.335 20.61C160.955 20.99 160.675 21.64 160.495 22.56C160.315 23.48 160.225 24.73 160.225 26.31C160.225 27.93 160.315 29.18 160.495 30.06C160.695 30.94 161.015 31.55 161.455 31.89C161.915 32.23 162.535 32.4 163.315 32.4C164.375 32.4 165.315 32.14 166.135 31.62C166.955 31.08 167.645 30.16 168.205 28.86H169.135C168.715 30.24 167.975 31.34 166.915 32.16C165.855 32.98 164.615 33.39 163.195 33.39ZM185.878 33.39C184.878 33.39 183.938 33.21 183.058 32.85C182.198 32.47 181.428 31.95 180.748 31.29C180.088 30.63 179.568 29.87 179.188 29.01C178.808 28.15 178.618 27.23 178.618 26.25C178.618 25.27 178.808 24.35 179.188 23.49C179.568 22.63 180.088 21.88 180.748 21.24C181.428 20.58 182.198 20.07 183.058 19.71C183.938 19.33 184.888 19.14 185.908 19.14C186.908 19.14 187.848 19.33 188.728 19.71C189.608 20.07 190.378 20.58 191.038 21.24C191.718 21.88 192.238 22.63 192.598 23.49C192.978 24.35 193.168 25.27 193.168 26.25C193.168 27.23 192.978 28.15 192.598 29.01C192.238 29.87 191.718 30.63 191.038 31.29C190.378 31.95 189.608 32.47 188.728 32.85C187.848 33.21 186.898 33.39 185.878 33.39ZM185.878 32.4C186.618 32.4 187.208 32.24 187.648 31.92C188.088 31.58 188.408 30.97 188.608 30.09C188.808 29.21 188.908 27.94 188.908 26.28C188.908 24.6 188.808 23.32 188.608 22.44C188.408 21.54 188.088 20.93 187.648 20.61C187.208 20.29 186.618 20.13 185.878 20.13C185.158 20.13 184.578 20.29 184.138 20.61C183.718 20.93 183.408 21.54 183.208 22.44C183.008 23.32 182.908 24.6 182.908 26.28C182.908 27.94 183.008 29.21 183.208 30.09C183.408 30.97 183.718 31.58 184.138 31.92C184.578 32.24 185.158 32.4 185.878 32.4ZM198.163 33V18.63C198.163 16.83 198.393 15.29 198.853 14.01C199.313 12.73 199.983 11.75 200.863 11.07C201.743 10.37 202.803 10.02 204.043 10.02C205.183 10.02 206.073 10.28 206.713 10.8C207.373 11.3 207.703 11.93 207.703 12.69C207.703 13.25 207.523 13.7 207.163 14.04C206.823 14.38 206.373 14.55 205.813 14.55C205.353 14.55 204.963 14.42 204.643 14.16C204.323 13.88 204.163 13.5 204.163 13.02C204.163 12.72 204.203 12.49 204.283 12.33C204.383 12.17 204.483 12.03 204.583 11.91C204.683 11.79 204.733 11.64 204.733 11.46C204.733 11.1 204.453 10.92 203.893 10.92C203.273 10.92 202.783 11.17 202.423 11.67C202.083 12.15 201.913 13.02 201.913 14.28V33H198.163ZM195.523 33V32.16H205.123V33H195.523ZM195.493 20.49V19.65H205.363V20.49H195.493ZM215.687 32.55V20.1H219.437V32.55H215.687ZM213.287 33V32.16H221.597V33H213.287ZM213.137 20.46V19.62H219.437V20.46H213.137ZM217.397 15.54C216.817 15.54 216.307 15.33 215.867 14.91C215.427 14.47 215.207 13.95 215.207 13.35C215.207 12.75 215.427 12.23 215.867 11.79C216.307 11.35 216.817 11.13 217.397 11.13C217.997 11.13 218.517 11.35 218.957 11.79C219.397 12.23 219.617 12.75 219.617 13.35C219.617 13.95 219.397 14.47 218.957 14.91C218.517 15.33 217.997 15.54 217.397 15.54ZM234.983 32.55V22.17C234.983 20.93 234.453 20.31 233.393 20.31C232.733 20.31 232.133 20.58 231.593 21.12C231.053 21.66 230.613 22.4 230.273 23.34C229.953 24.26 229.793 25.31 229.793 26.49L229.193 21.99H229.913C230.333 21.13 230.913 20.44 231.653 19.92C232.393 19.4 233.343 19.14 234.503 19.14C235.743 19.14 236.753 19.46 237.533 20.1C238.313 20.72 238.703 21.49 238.703 22.41V32.55H234.983ZM223.673 33V32.16H231.743V33H223.673ZM226.073 32.55V19.98H229.793V32.55H226.073ZM232.823 33V32.16H240.653V33H232.823ZM223.673 20.34V19.5H229.793V20.34H223.673ZM247.897 33.39C246.777 33.39 245.947 33.18 245.407 32.76C244.887 32.32 244.627 31.69 244.627 30.87V20.37H242.197V19.5C242.937 19.44 243.627 19.17 244.267 18.69C244.907 18.21 245.487 17.59 246.007 16.83C246.547 16.07 246.987 15.24 247.327 14.34H248.347V19.5H251.797V20.37H248.347V30.51C248.347 31.41 248.727 31.86 249.487 31.86C249.887 31.86 250.247 31.73 250.567 31.47C250.907 31.19 251.267 30.72 251.647 30.06L252.307 30.45C251.787 31.55 251.187 32.32 250.507 32.76C249.827 33.18 248.957 33.39 247.897 33.39ZM253.943 33V32.16H256.343V20.34H253.943V19.5H260.063V21.84H260.183C260.763 20.74 261.403 20.02 262.103 19.68C262.803 19.32 263.433 19.14 263.993 19.14C264.773 19.14 265.383 19.35 265.823 19.77C266.263 20.19 266.483 20.79 266.483 21.57C266.483 22.31 266.283 22.86 265.883 23.22C265.483 23.56 265.003 23.73 264.443 23.73C263.963 23.73 263.523 23.59 263.123 23.31C262.743 23.03 262.553 22.63 262.553 22.11C262.553 21.85 262.593 21.65 262.673 21.51C262.753 21.37 262.793 21.25 262.793 21.15C262.793 21.07 262.773 21.01 262.733 20.97C262.693 20.91 262.593 20.88 262.433 20.88C262.153 20.88 261.823 21.09 261.443 21.51C261.063 21.93 260.733 22.48 260.453 23.16C260.193 23.84 260.063 24.59 260.063 25.41V32.16H262.373V33H253.943ZM271.773 32.55V20.1H275.523V32.55H271.773ZM269.373 33V32.16H277.683V33H269.373ZM269.223 20.46V19.62H275.523V20.46H269.223ZM273.483 15.54C272.903 15.54 272.393 15.33 271.953 14.91C271.513 14.47 271.293 13.95 271.293 13.35C271.293 12.75 271.513 12.23 271.953 11.79C272.393 11.35 272.903 11.13 273.483 11.13C274.083 11.13 274.603 11.35 275.043 11.79C275.483 12.23 275.703 12.75 275.703 13.35C275.703 13.95 275.483 14.47 275.043 14.91C274.603 15.33 274.083 15.54 273.483 15.54ZM287.619 33.39C286.639 33.39 285.709 33.19 284.829 32.79C283.969 32.39 283.209 31.85 282.549 31.17C281.889 30.49 281.369 29.73 280.989 28.89C280.629 28.03 280.449 27.14 280.449 26.22C280.449 25.34 280.629 24.48 280.989 23.64C281.369 22.8 281.879 22.04 282.519 21.36C283.179 20.68 283.949 20.14 284.829 19.74C285.729 19.34 286.709 19.14 287.769 19.14C288.689 19.14 289.529 19.3 290.289 19.62C291.069 19.92 291.679 20.33 292.119 20.85C292.579 21.37 292.809 21.99 292.809 22.71C292.809 23.35 292.609 23.85 292.209 24.21C291.829 24.57 291.329 24.75 290.709 24.75C290.149 24.75 289.669 24.59 289.269 24.27C288.889 23.95 288.699 23.5 288.699 22.92C288.699 22.56 288.769 22.29 288.909 22.11C289.049 21.91 289.179 21.73 289.299 21.57C289.439 21.41 289.509 21.21 289.509 20.97C289.509 20.65 289.359 20.42 289.059 20.28C288.779 20.12 288.359 20.04 287.799 20.04C287.139 20.04 286.579 20.21 286.119 20.55C285.659 20.89 285.309 21.52 285.069 22.44C284.849 23.36 284.739 24.71 284.739 26.49C284.739 28.05 284.829 29.26 285.009 30.12C285.209 30.98 285.539 31.58 285.999 31.92C286.459 32.24 287.069 32.4 287.829 32.4C288.909 32.4 289.819 32.1 290.559 31.5C291.299 30.9 291.939 29.92 292.479 28.56H293.409C293.009 30 292.319 31.17 291.339 32.07C290.359 32.95 289.119 33.39 287.619 33.39ZM300.27 33.36C299.15 33.36 298.23 33.05 297.51 32.43C296.79 31.81 296.43 30.99 296.43 29.97C296.43 29.01 296.76 28.19 297.42 27.51C298.1 26.81 299.05 26.28 300.27 25.92C301.51 25.54 302.96 25.35 304.62 25.35V21.78C304.62 21.26 304.42 20.85 304.02 20.55C303.64 20.25 303.12 20.1 302.46 20.1C301.9 20.1 301.43 20.2 301.05 20.4C300.67 20.6 300.48 20.86 300.48 21.18C300.48 21.42 300.57 21.63 300.75 21.81C300.93 21.97 301.02 22.24 301.02 22.62C301.02 23.1 300.84 23.51 300.48 23.85C300.12 24.17 299.67 24.33 299.13 24.33C298.61 24.33 298.18 24.16 297.84 23.82C297.52 23.48 297.36 23.05 297.36 22.53C297.36 21.89 297.61 21.32 298.11 20.82C298.61 20.3 299.29 19.89 300.15 19.59C301.03 19.29 302.01 19.14 303.09 19.14C304.63 19.14 305.89 19.43 306.87 20.01C307.85 20.57 308.34 21.31 308.34 22.23V31.14C308.34 31.34 308.4 31.51 308.52 31.65C308.66 31.77 308.82 31.83 309 31.83C309.18 31.83 309.37 31.75 309.57 31.59C309.79 31.43 310.08 31.15 310.44 30.75L310.95 31.35C309.93 32.69 308.78 33.36 307.5 33.36C306.74 33.36 306.13 33.17 305.67 32.79C305.21 32.41 304.9 31.89 304.74 31.23H304.62C304.24 31.79 303.66 32.29 302.88 32.73C302.1 33.15 301.23 33.36 300.27 33.36ZM302.19 31.71C302.89 31.71 303.47 31.43 303.93 30.87C304.39 30.29 304.62 29.54 304.62 28.62V26.22C303.22 26.22 302.15 26.5 301.41 27.06C300.69 27.6 300.33 28.4 300.33 29.46C300.33 30.14 300.49 30.69 300.81 31.11C301.13 31.51 301.59 31.71 302.19 31.71ZM317.682 33.39C316.562 33.39 315.732 33.18 315.192 32.76C314.672 32.32 314.412 31.69 314.412 30.87V20.37H311.982V19.5C312.722 19.44 313.412 19.17 314.052 18.69C314.692 18.21 315.272 17.59 315.792 16.83C316.332 16.07 316.772 15.24 317.112 14.34H318.132V19.5H321.582V20.37H318.132V30.51C318.132 31.41 318.512 31.86 319.272 31.86C319.672 31.86 320.032 31.73 320.352 31.47C320.692 31.19 321.052 30.72 321.432 30.06L322.092 30.45C321.572 31.55 320.972 32.32 320.292 32.76C319.612 33.18 318.742 33.39 317.682 33.39ZM331.441 33.39C330.441 33.39 329.501 33.19 328.621 32.79C327.741 32.39 326.961 31.85 326.281 31.17C325.621 30.49 325.101 29.73 324.721 28.89C324.361 28.03 324.181 27.13 324.181 26.19C324.181 25.01 324.471 23.89 325.051 22.83C325.651 21.75 326.481 20.87 327.541 20.19C328.601 19.49 329.841 19.14 331.261 19.14C332.401 19.14 333.421 19.38 334.321 19.86C335.241 20.34 335.961 21.03 336.481 21.93C337.021 22.81 337.291 23.84 337.291 25.02V25.29H327.181V24.45H333.421V22.68C333.421 20.92 332.661 20.04 331.141 20.04C330.501 20.04 329.981 20.23 329.581 20.61C329.201 20.99 328.921 21.64 328.741 22.56C328.561 23.48 328.471 24.73 328.471 26.31C328.471 27.93 328.561 29.18 328.741 30.06C328.941 30.94 329.261 31.55 329.701 31.89C330.161 32.23 330.781 32.4 331.561 32.4C332.621 32.4 333.561 32.14 334.381 31.62C335.201 31.08 335.891 30.16 336.451 28.86H337.381C336.961 30.24 336.221 31.34 335.161 32.16C334.101 32.98 332.861 33.39 331.441 33.39ZM351.664 33.39L346.834 20.34H345.094V19.5H352.774V20.34H351.034L353.554 27.84H353.674L356.674 19.5H357.784L360.994 27.84H361.144L363.604 20.34H361.324V19.5H366.844V20.34H364.684L360.154 33.39H359.284L355.954 24.6H355.834L352.534 33.39H351.664ZM375.235 33.39C374.235 33.39 373.295 33.21 372.415 32.85C371.555 32.47 370.785 31.95 370.105 31.29C369.445 30.63 368.925 29.87 368.545 29.01C368.165 28.15 367.975 27.23 367.975 26.25C367.975 25.27 368.165 24.35 368.545 23.49C368.925 22.63 369.445 21.88 370.105 21.24C370.785 20.58 371.555 20.07 372.415 19.71C373.295 19.33 374.245 19.14 375.265 19.14C376.265 19.14 377.205 19.33 378.085 19.71C378.965 20.07 379.735 20.58 380.395 21.24C381.075 21.88 381.595 22.63 381.955 23.49C382.335 24.35 382.525 25.27 382.525 26.25C382.525 27.23 382.335 28.15 381.955 29.01C381.595 29.87 381.075 30.63 380.395 31.29C379.735 31.95 378.965 32.47 378.085 32.85C377.205 33.21 376.255 33.39 375.235 33.39ZM375.235 32.4C375.975 32.4 376.565 32.24 377.005 31.92C377.445 31.58 377.765 30.97 377.965 30.09C378.165 29.21 378.265 27.94 378.265 26.28C378.265 24.6 378.165 23.32 377.965 22.44C377.765 21.54 377.445 20.93 377.005 20.61C376.565 20.29 375.975 20.13 375.235 20.13C374.515 20.13 373.935 20.29 373.495 20.61C373.075 20.93 372.765 21.54 372.565 22.44C372.365 23.32 372.265 24.6 372.265 26.28C372.265 27.94 372.365 29.21 372.565 30.09C372.765 30.97 373.075 31.58 373.495 31.92C373.935 32.24 374.515 32.4 375.235 32.4ZM385.38 33V32.16H387.78V20.34H385.38V19.5H391.5V21.84H391.62C392.2 20.74 392.84 20.02 393.54 19.68C394.24 19.32 394.87 19.14 395.43 19.14C396.21 19.14 396.82 19.35 397.26 19.77C397.7 20.19 397.92 20.79 397.92 21.57C397.92 22.31 397.72 22.86 397.32 23.22C396.92 23.56 396.44 23.73 395.88 23.73C395.4 23.73 394.96 23.59 394.56 23.31C394.18 23.03 393.99 22.63 393.99 22.11C393.99 21.85 394.03 21.65 394.11 21.51C394.19 21.37 394.23 21.25 394.23 21.15C394.23 21.07 394.21 21.01 394.17 20.97C394.13 20.91 394.03 20.88 393.87 20.88C393.59 20.88 393.26 21.09 392.88 21.51C392.5 21.93 392.17 22.48 391.89 23.16C391.63 23.84 391.5 24.59 391.5 25.41V32.16H393.81V33H385.38ZM411.004 32.55L405.844 25.44L408.784 23.58L415.654 32.55H411.004ZM399.484 33V32.16H407.404V33H399.484ZM408.874 33V32.16H416.884V33H408.874ZM401.884 32.55V10.86H405.604V32.55H401.884ZM407.074 25.53L405.844 25.44L411.484 20.04H412.894L407.074 25.53ZM399.484 11.22V10.38H405.604V11.22H399.484ZM408.274 20.34V19.5H415.234V20.34H408.274ZM437.413 32.55V22.17C437.413 20.93 436.903 20.31 435.883 20.31C435.263 20.31 434.683 20.58 434.143 21.12C433.603 21.66 433.173 22.4 432.853 23.34C432.553 24.26 432.403 25.31 432.403 26.49L431.803 21.99H432.523C432.923 21.13 433.483 20.44 434.203 19.92C434.943 19.4 435.873 19.14 436.993 19.14C438.213 19.14 439.203 19.46 439.963 20.1C440.743 20.72 441.133 21.49 441.133 22.41V32.55H437.413ZM417.553 33V32.16H425.653V33H417.553ZM419.953 32.55V19.98H423.703V32.55H419.953ZM426.553 33V32.16H434.383V33H426.553ZM417.553 20.34V19.5H423.703V20.34H417.553ZM428.713 32.55V22.17C428.713 20.93 428.203 20.31 427.183 20.31C426.543 20.31 425.953 20.58 425.413 21.12C424.893 21.66 424.473 22.4 424.153 23.34C423.853 24.26 423.703 25.31 423.703 26.49L423.103 21.99H423.793C424.193 21.13 424.753 20.44 425.473 19.92C426.213 19.4 427.143 19.14 428.263 19.14C429.503 19.14 430.503 19.46 431.263 20.1C432.043 20.72 432.433 21.49 432.433 22.41V32.55H428.713ZM435.253 33V32.16H443.113V33H435.253ZM449.491 33.36C448.371 33.36 447.451 33.05 446.731 32.43C446.011 31.81 445.651 30.99 445.651 29.97C445.651 29.01 445.981 28.19 446.641 27.51C447.321 26.81 448.271 26.28 449.491 25.92C450.731 25.54 452.181 25.35 453.841 25.35V21.78C453.841 21.26 453.641 20.85 453.241 20.55C452.861 20.25 452.341 20.1 451.681 20.1C451.121 20.1 450.651 20.2 450.271 20.4C449.891 20.6 449.701 20.86 449.701 21.18C449.701 21.42 449.791 21.63 449.971 21.81C450.151 21.97 450.241 22.24 450.241 22.62C450.241 23.1 450.061 23.51 449.701 23.85C449.341 24.17 448.891 24.33 448.351 24.33C447.831 24.33 447.401 24.16 447.061 23.82C446.741 23.48 446.581 23.05 446.581 22.53C446.581 21.89 446.831 21.32 447.331 20.82C447.831 20.3 448.511 19.89 449.371 19.59C450.251 19.29 451.231 19.14 452.311 19.14C453.851 19.14 455.111 19.43 456.091 20.01C457.071 20.57 457.561 21.31 457.561 22.23V31.14C457.561 31.34 457.621 31.51 457.741 31.65C457.881 31.77 458.041 31.83 458.221 31.83C458.401 31.83 458.591 31.75 458.791 31.59C459.011 31.43 459.301 31.15 459.661 30.75L460.171 31.35C459.151 32.69 458.001 33.36 456.721 33.36C455.961 33.36 455.351 33.17 454.891 32.79C454.431 32.41 454.121 31.89 453.961 31.23H453.841C453.461 31.79 452.881 32.29 452.101 32.73C451.321 33.15 450.451 33.36 449.491 33.36ZM451.411 31.71C452.111 31.71 452.691 31.43 453.151 30.87C453.611 30.29 453.841 29.54 453.841 28.62V26.22C452.441 26.22 451.371 26.5 450.631 27.06C449.911 27.6 449.551 28.4 449.551 29.46C449.551 30.14 449.711 30.69 450.031 31.11C450.351 31.51 450.811 31.71 451.411 31.71ZM472.903 32.55V22.17C472.903 20.93 472.373 20.31 471.313 20.31C470.653 20.31 470.053 20.58 469.513 21.12C468.973 21.66 468.533 22.4 468.193 23.34C467.873 24.26 467.713 25.31 467.713 26.49L467.113 21.99H467.833C468.253 21.13 468.833 20.44 469.573 19.92C470.313 19.4 471.263 19.14 472.423 19.14C473.663 19.14 474.673 19.46 475.453 20.1C476.233 20.72 476.623 21.49 476.623 22.41V32.55H472.903ZM461.593 33V32.16H469.663V33H461.593ZM463.993 32.55V19.98H467.713V32.55H463.993ZM470.743 33V32.16H478.573V33H470.743ZM461.593 20.34V19.5H467.713V20.34H461.593ZM486.807 33.36C485.947 33.36 485.127 33.22 484.347 32.94C483.567 32.66 482.927 32.29 482.427 31.83L481.977 33H481.107V28.26H482.067L482.247 28.98C482.487 29.98 482.967 30.78 483.687 31.38C484.427 31.98 485.467 32.28 486.807 32.28C487.787 32.28 488.487 32.12 488.907 31.8C489.347 31.48 489.567 31.01 489.567 30.39C489.567 29.83 489.327 29.39 488.847 29.07C488.367 28.75 487.497 28.46 486.237 28.2C485.297 28.02 484.457 27.77 483.717 27.45C482.997 27.13 482.427 26.68 482.007 26.1C481.607 25.5 481.407 24.69 481.407 23.67C481.407 22.19 481.817 21.07 482.637 20.31C483.477 19.53 484.667 19.14 486.207 19.14C487.087 19.14 487.847 19.26 488.487 19.5C489.147 19.74 489.607 20.07 489.867 20.49L490.197 19.5H490.977V23.85H489.987L489.897 23.4C489.677 22.28 489.297 21.47 488.757 20.97C488.217 20.47 487.377 20.22 486.237 20.22C485.297 20.22 484.587 20.4 484.107 20.76C483.647 21.1 483.417 21.56 483.417 22.14C483.417 22.46 483.497 22.74 483.657 22.98C483.837 23.22 484.167 23.45 484.647 23.67C485.147 23.87 485.847 24.07 486.747 24.27C487.727 24.47 488.577 24.74 489.297 25.08C490.017 25.42 490.577 25.88 490.977 26.46C491.377 27.04 491.577 27.8 491.577 28.74C491.577 30.22 491.137 31.36 490.257 32.16C489.397 32.96 488.247 33.36 486.807 33.36ZM505.516 32.55V22.32C505.516 21.6 505.366 21.09 505.066 20.79C504.786 20.47 504.396 20.31 503.896 20.31C503.236 20.31 502.616 20.58 502.036 21.12C501.476 21.66 501.036 22.4 500.716 23.34C500.396 24.26 500.236 25.31 500.236 26.49L499.636 21.99H500.356C500.776 21.13 501.356 20.44 502.096 19.92C502.856 19.4 503.816 19.14 504.976 19.14C506.236 19.14 507.256 19.46 508.036 20.1C508.836 20.72 509.236 21.49 509.236 22.41V32.55H505.516ZM494.116 33V32.16H502.186V33H494.116ZM503.356 33V32.16H511.186V33H503.356ZM496.516 32.55V10.86H500.236V32.55H496.516ZM494.116 11.22V10.38H500.236V11.22H494.116ZM515.728 32.55V20.1H519.478V32.55H515.728ZM513.328 33V32.16H521.638V33H513.328ZM513.178 20.46V19.62H519.478V20.46H513.178ZM517.438 15.54C516.858 15.54 516.348 15.33 515.908 14.91C515.468 14.47 515.248 13.95 515.248 13.35C515.248 12.75 515.468 12.23 515.908 11.79C516.348 11.35 516.858 11.13 517.438 11.13C518.038 11.13 518.558 11.35 518.998 11.79C519.438 12.23 519.658 12.75 519.658 13.35C519.658 13.95 519.438 14.47 518.998 14.91C518.558 15.33 518.038 15.54 517.438 15.54ZM533.674 33.36C532.754 33.36 531.944 33.16 531.244 32.76C530.544 32.36 530.024 31.86 529.684 31.26H528.964L529.564 26.7C529.564 28.62 529.904 30.03 530.584 30.93C531.284 31.81 532.154 32.25 533.194 32.25C533.734 32.25 534.174 32.09 534.514 31.77C534.854 31.45 535.094 30.86 535.234 30C535.394 29.14 535.474 27.91 535.474 26.31C535.474 24.67 535.394 23.41 535.234 22.53C535.074 21.65 534.824 21.05 534.484 20.73C534.144 20.41 533.704 20.25 533.164 20.25C532.124 20.25 531.264 20.69 530.584 21.57C529.904 22.45 529.564 23.86 529.564 25.8L528.964 21.24H529.684C530.024 20.64 530.544 20.14 531.244 19.74C531.964 19.34 532.784 19.14 533.704 19.14C534.744 19.14 535.724 19.44 536.644 20.04C537.564 20.62 538.304 21.45 538.864 22.53C539.424 23.59 539.704 24.83 539.704 26.25C539.704 27.67 539.414 28.92 538.834 30C538.274 31.06 537.534 31.89 536.614 32.49C535.694 33.07 534.714 33.36 533.674 33.36ZM523.684 42.42V41.58H532.564V42.42H523.684ZM525.844 41.97V19.98H529.564V41.97H525.844ZM523.444 20.34V19.5H529.564V20.34H523.444ZM553.295 33.36C552.175 33.36 551.255 33.05 550.535 32.43C549.815 31.81 549.455 30.99 549.455 29.97C549.455 29.01 549.785 28.19 550.445 27.51C551.125 26.81 552.075 26.28 553.295 25.92C554.535 25.54 555.985 25.35 557.645 25.35V21.78C557.645 21.26 557.445 20.85 557.045 20.55C556.665 20.25 556.145 20.1 555.485 20.1C554.925 20.1 554.455 20.2 554.075 20.4C553.695 20.6 553.505 20.86 553.505 21.18C553.505 21.42 553.595 21.63 553.775 21.81C553.955 21.97 554.045 22.24 554.045 22.62C554.045 23.1 553.865 23.51 553.505 23.85C553.145 24.17 552.695 24.33 552.155 24.33C551.635 24.33 551.205 24.16 550.865 23.82C550.545 23.48 550.385 23.05 550.385 22.53C550.385 21.89 550.635 21.32 551.135 20.82C551.635 20.3 552.315 19.89 553.175 19.59C554.055 19.29 555.035 19.14 556.115 19.14C557.655 19.14 558.915 19.43 559.895 20.01C560.875 20.57 561.365 21.31 561.365 22.23V31.14C561.365 31.34 561.425 31.51 561.545 31.65C561.685 31.77 561.845 31.83 562.025 31.83C562.205 31.83 562.395 31.75 562.595 31.59C562.815 31.43 563.105 31.15 563.465 30.75L563.975 31.35C562.955 32.69 561.805 33.36 560.525 33.36C559.765 33.36 559.155 33.17 558.695 32.79C558.235 32.41 557.925 31.89 557.765 31.23H557.645C557.265 31.79 556.685 32.29 555.905 32.73C555.125 33.15 554.255 33.36 553.295 33.36ZM555.215 31.71C555.915 31.71 556.495 31.43 556.955 30.87C557.415 30.29 557.645 29.54 557.645 28.62V26.22C556.245 26.22 555.175 26.5 554.435 27.06C553.715 27.6 553.355 28.4 553.355 29.46C553.355 30.14 553.515 30.69 553.835 31.11C554.155 31.51 554.615 31.71 555.215 31.71ZM576.708 32.55V22.17C576.708 20.93 576.178 20.31 575.118 20.31C574.458 20.31 573.858 20.58 573.318 21.12C572.778 21.66 572.338 22.4 571.998 23.34C571.678 24.26 571.518 25.31 571.518 26.49L570.918 21.99H571.638C572.058 21.13 572.638 20.44 573.378 19.92C574.118 19.4 575.068 19.14 576.228 19.14C577.468 19.14 578.478 19.46 579.258 20.1C580.038 20.72 580.428 21.49 580.428 22.41V32.55H576.708ZM565.398 33V32.16H573.468V33H565.398ZM567.798 32.55V19.98H571.518V32.55H567.798ZM574.548 33V32.16H582.378V33H574.548ZM565.398 20.34V19.5H571.518V20.34H565.398ZM591.062 33.36C590.022 33.36 589.042 33.07 588.122 32.49C587.202 31.89 586.442 31.06 585.842 30C585.262 28.92 584.972 27.67 584.972 26.25C584.972 24.83 585.262 23.59 585.842 22.53C586.422 21.45 587.172 20.62 588.092 20.04C589.012 19.44 589.992 19.14 591.032 19.14C591.972 19.14 592.792 19.34 593.492 19.74C594.212 20.14 594.732 20.64 595.052 21.24H595.772L595.172 25.8C595.172 23.86 594.822 22.45 594.122 21.57C593.442 20.69 592.592 20.25 591.572 20.25C591.012 20.25 590.562 20.41 590.222 20.73C589.882 21.05 589.632 21.65 589.472 22.53C589.312 23.39 589.232 24.64 589.232 26.28C589.232 27.9 589.302 29.15 589.442 30.03C589.602 30.89 589.852 31.48 590.192 31.8C590.532 32.1 590.982 32.25 591.542 32.25C592.562 32.25 593.422 31.81 594.122 30.93C594.822 30.03 595.172 28.62 595.172 26.7L595.772 31.26H595.052C594.732 31.86 594.222 32.36 593.522 32.76C592.822 33.16 592.002 33.36 591.062 33.36ZM595.172 33V32.16H601.112V33H595.172ZM595.172 32.55V10.86H598.892V32.55H595.172ZM592.202 11.22V10.38H598.892V11.22H592.202ZM616.029 33.36C614.989 33.36 614.009 33.07 613.089 32.49C612.169 31.89 611.409 31.06 610.809 30C610.229 28.92 609.939 27.67 609.939 26.25C609.939 24.83 610.229 23.59 610.809 22.53C611.389 21.45 612.139 20.62 613.059 20.04C613.979 19.44 614.959 19.14 615.999 19.14C616.939 19.14 617.759 19.34 618.459 19.74C619.179 20.14 619.699 20.64 620.019 21.24H620.739L620.139 25.8C620.139 23.86 619.789 22.45 619.089 21.57C618.409 20.69 617.559 20.25 616.539 20.25C615.979 20.25 615.529 20.41 615.189 20.73C614.849 21.05 614.599 21.65 614.439 22.53C614.279 23.39 614.199 24.64 614.199 26.28C614.199 27.9 614.269 29.15 614.409 30.03C614.569 30.89 614.819 31.48 615.159 31.8C615.499 32.1 615.949 32.25 616.509 32.25C617.529 32.25 618.389 31.81 619.089 30.93C619.789 30.03 620.139 28.62 620.139 26.7L620.739 31.26H620.019C619.699 31.86 619.189 32.36 618.489 32.76C617.789 33.16 616.969 33.36 616.029 33.36ZM620.139 33V32.16H626.079V33H620.139ZM620.139 32.55V10.86H623.859V32.55H620.139ZM617.169 11.22V10.38H623.859V11.22H617.169ZM635.847 33.39C634.847 33.39 633.907 33.19 633.027 32.79C632.147 32.39 631.367 31.85 630.687 31.17C630.027 30.49 629.507 29.73 629.127 28.89C628.767 28.03 628.587 27.13 628.587 26.19C628.587 25.01 628.877 23.89 629.457 22.83C630.057 21.75 630.887 20.87 631.947 20.19C633.007 19.49 634.247 19.14 635.667 19.14C636.807 19.14 637.827 19.38 638.727 19.86C639.647 20.34 640.367 21.03 640.887 21.93C641.427 22.81 641.697 23.84 641.697 25.02V25.29H631.587V24.45H637.827V22.68C637.827 20.92 637.067 20.04 635.547 20.04C634.907 20.04 634.387 20.23 633.987 20.61C633.607 20.99 633.327 21.64 633.147 22.56C632.967 23.48 632.877 24.73 632.877 26.31C632.877 27.93 632.967 29.18 633.147 30.06C633.347 30.94 633.667 31.55 634.107 31.89C634.567 32.23 635.187 32.4 635.967 32.4C637.027 32.4 637.967 32.14 638.787 31.62C639.607 31.08 640.297 30.16 640.857 28.86H641.787C641.367 30.24 640.627 31.34 639.567 32.16C638.507 32.98 637.267 33.39 635.847 33.39ZM649.721 33.39C648.601 33.39 647.771 33.18 647.231 32.76C646.711 32.32 646.451 31.69 646.451 30.87V20.37H644.021V19.5C644.761 19.44 645.451 19.17 646.091 18.69C646.731 18.21 647.311 17.59 647.831 16.83C648.371 16.07 648.811 15.24 649.151 14.34H650.171V19.5H653.621V20.37H650.171V30.51C650.171 31.41 650.551 31.86 651.311 31.86C651.711 31.86 652.071 31.73 652.391 31.47C652.731 31.19 653.091 30.72 653.471 30.06L654.131 30.45C653.611 31.55 653.011 32.32 652.331 32.76C651.651 33.18 650.781 33.39 649.721 33.39ZM660.791 33.36C659.671 33.36 658.751 33.05 658.031 32.43C657.311 31.81 656.951 30.99 656.951 29.97C656.951 29.01 657.281 28.19 657.941 27.51C658.621 26.81 659.571 26.28 660.791 25.92C662.031 25.54 663.481 25.35 665.141 25.35V21.78C665.141 21.26 664.941 20.85 664.541 20.55C664.161 20.25 663.641 20.1 662.981 20.1C662.421 20.1 661.951 20.2 661.571 20.4C661.191 20.6 661.001 20.86 661.001 21.18C661.001 21.42 661.091 21.63 661.271 21.81C661.451 21.97 661.541 22.24 661.541 22.62C661.541 23.1 661.361 23.51 661.001 23.85C660.641 24.17 660.191 24.33 659.651 24.33C659.131 24.33 658.701 24.16 658.361 23.82C658.041 23.48 657.881 23.05 657.881 22.53C657.881 21.89 658.131 21.32 658.631 20.82C659.131 20.3 659.811 19.89 660.671 19.59C661.551 19.29 662.531 19.14 663.611 19.14C665.151 19.14 666.411 19.43 667.391 20.01C668.371 20.57 668.861 21.31 668.861 22.23V31.14C668.861 31.34 668.921 31.51 669.041 31.65C669.181 31.77 669.341 31.83 669.521 31.83C669.701 31.83 669.891 31.75 670.091 31.59C670.311 31.43 670.601 31.15 670.961 30.75L671.471 31.35C670.451 32.69 669.301 33.36 668.021 33.36C667.261 33.36 666.651 33.17 666.191 32.79C665.731 32.41 665.421 31.89 665.261 31.23H665.141C664.761 31.79 664.181 32.29 663.401 32.73C662.621 33.15 661.751 33.36 660.791 33.36ZM662.711 31.71C663.411 31.71 663.991 31.43 664.451 30.87C664.911 30.29 665.141 29.54 665.141 28.62V26.22C663.741 26.22 662.671 26.5 661.931 27.06C661.211 27.6 660.851 28.4 660.851 29.46C660.851 30.14 661.011 30.69 661.331 31.11C661.651 31.51 662.111 31.71 662.711 31.71ZM675.384 32.55V20.1H679.134V32.55H675.384ZM672.984 33V32.16H681.294V33H672.984ZM672.834 20.46V19.62H679.134V20.46H672.834ZM677.094 15.54C676.514 15.54 676.004 15.33 675.564 14.91C675.124 14.47 674.904 13.95 674.904 13.35C674.904 12.75 675.124 12.23 675.564 11.79C676.004 11.35 676.514 11.13 677.094 11.13C677.694 11.13 678.214 11.35 678.654 11.79C679.094 12.23 679.314 12.75 679.314 13.35C679.314 13.95 679.094 14.47 678.654 14.91C678.214 15.33 677.694 15.54 677.094 15.54ZM685.56 32.55V10.86H689.28V32.55H685.56ZM683.16 33V32.16H691.59V33H683.16ZM683.16 11.22V10.38H689.28V11.22H683.16ZM695.325 38.55L694.995 37.89C696.115 37.19 696.975 36.43 697.575 35.61C698.175 34.79 698.475 33.94 698.475 33.06C698.475 32.74 698.435 32.52 698.355 32.4C698.275 32.26 698.175 32.19 698.055 32.19C697.875 32.19 697.715 32.28 697.575 32.46C697.455 32.62 697.285 32.79 697.065 32.97C696.865 33.15 696.535 33.24 696.075 33.24C695.415 33.24 694.915 33.03 694.575 32.61C694.235 32.19 694.065 31.68 694.065 31.08C694.065 30.38 694.285 29.82 694.725 29.4C695.165 28.96 695.765 28.74 696.525 28.74C697.485 28.74 698.245 29.09 698.805 29.79C699.365 30.47 699.645 31.36 699.645 32.46C699.645 33.76 699.245 34.93 698.445 35.97C697.665 37.01 696.625 37.87 695.325 38.55ZM716.419 33.39C715.419 33.39 714.479 33.19 713.599 32.79C712.719 32.39 711.939 31.85 711.259 31.17C710.599 30.49 710.079 29.73 709.699 28.89C709.339 28.03 709.159 27.13 709.159 26.19C709.159 25.01 709.449 23.89 710.029 22.83C710.629 21.75 711.459 20.87 712.519 20.19C713.579 19.49 714.819 19.14 716.239 19.14C717.379 19.14 718.399 19.38 719.299 19.86C720.219 20.34 720.939 21.03 721.459 21.93C721.999 22.81 722.269 23.84 722.269 25.02V25.29H712.159V24.45H718.399V22.68C718.399 20.92 717.639 20.04 716.119 20.04C715.479 20.04 714.959 20.23 714.559 20.61C714.179 20.99 713.899 21.64 713.719 22.56C713.539 23.48 713.449 24.73 713.449 26.31C713.449 27.93 713.539 29.18 713.719 30.06C713.919 30.94 714.239 31.55 714.679 31.89C715.139 32.23 715.759 32.4 716.539 32.4C717.599 32.4 718.539 32.14 719.359 31.62C720.179 31.08 720.869 30.16 721.429 28.86H722.359C721.939 30.24 721.199 31.34 720.139 32.16C719.079 32.98 717.839 33.39 716.419 33.39ZM727.174 32.55V10.86H730.894V32.55H727.174ZM724.774 33V32.16H733.204V33H724.774ZM724.774 11.22V10.38H730.894V11.22H724.774ZM742.968 33.39C741.968 33.39 741.028 33.19 740.148 32.79C739.268 32.39 738.488 31.85 737.808 31.17C737.148 30.49 736.628 29.73 736.248 28.89C735.888 28.03 735.708 27.13 735.708 26.19C735.708 25.01 735.998 23.89 736.578 22.83C737.178 21.75 738.008 20.87 739.068 20.19C740.128 19.49 741.368 19.14 742.788 19.14C743.928 19.14 744.948 19.38 745.848 19.86C746.768 20.34 747.488 21.03 748.008 21.93C748.548 22.81 748.818 23.84 748.818 25.02V25.29H738.708V24.45H744.948V22.68C744.948 20.92 744.188 20.04 742.668 20.04C742.028 20.04 741.508 20.23 741.108 20.61C740.728 20.99 740.448 21.64 740.268 22.56C740.088 23.48 739.998 24.73 739.998 26.31C739.998 27.93 740.088 29.18 740.268 30.06C740.468 30.94 740.788 31.55 741.228 31.89C741.688 32.23 742.308 32.4 743.088 32.4C744.148 32.4 745.088 32.14 745.908 31.62C746.728 31.08 747.418 30.16 747.978 28.86H748.908C748.488 30.24 747.748 31.34 746.688 32.16C745.628 32.98 744.388 33.39 742.968 33.39ZM758.373 42.75C757.173 42.75 756.093 42.55 755.133 42.15C754.173 41.77 753.413 41.25 752.853 40.59C752.313 39.95 752.043 39.23 752.043 38.43C752.043 37.65 752.283 36.96 752.763 36.36C753.263 35.78 753.893 35.31 754.653 34.95V34.83C753.853 34.51 753.233 34.09 752.792 33.57C752.373 33.05 752.163 32.37 752.163 31.53C752.163 30.57 752.443 29.8 753.003 29.22C753.563 28.62 754.383 28.24 755.463 28.08C754.703 27.66 754.083 27.1 753.603 26.4C753.143 25.68 752.913 24.88 752.913 24C752.913 23.06 753.163 22.23 753.663 21.51C754.183 20.77 754.873 20.19 755.733 19.77C756.593 19.35 757.523 19.14 758.522 19.14C759.443 19.14 760.293 19.31 761.073 19.65C761.853 19.97 762.503 20.43 763.023 21.03C763.243 20.47 763.553 20.01 763.953 19.65C764.353 19.29 764.833 19.11 765.393 19.11C765.873 19.11 766.283 19.26 766.623 19.56C766.983 19.84 767.163 20.22 767.163 20.7C767.163 21.08 767.053 21.39 766.833 21.63C766.613 21.85 766.303 21.96 765.903 21.96C765.523 21.96 765.263 21.88 765.123 21.72C764.983 21.54 764.863 21.37 764.763 21.21C764.663 21.03 764.483 20.94 764.223 20.94C764.063 20.94 763.933 21.01 763.833 21.15C763.753 21.29 763.693 21.54 763.653 21.9C763.833 22.22 763.963 22.56 764.043 22.92C764.143 23.26 764.193 23.62 764.193 24C764.193 24.92 763.933 25.75 763.413 26.49C762.893 27.23 762.203 27.81 761.343 28.23C760.483 28.63 759.543 28.83 758.522 28.83H756.663C755.763 28.83 755.033 28.99 754.473 29.31C753.933 29.61 753.663 30 753.663 30.48C753.663 30.8 753.803 31.08 754.083 31.32C754.363 31.54 754.763 31.65 755.283 31.65H761.583C762.523 31.65 763.313 31.78 763.953 32.04C764.593 32.28 765.073 32.7 765.393 33.3C765.733 33.9 765.903 34.71 765.903 35.73C765.903 37.23 765.563 38.5 764.883 39.54C764.223 40.6 763.323 41.4 762.183 41.94C761.063 42.48 759.793 42.75 758.373 42.75ZM758.793 41.76C759.753 41.76 760.663 41.55 761.523 41.13C762.383 40.71 763.083 40.13 763.623 39.39C764.163 38.65 764.433 37.8 764.433 36.84C764.433 36.2 764.283 35.72 763.983 35.4C763.683 35.08 763.213 34.92 762.573 34.92H755.883C755.563 35.2 755.293 35.66 755.073 36.3C754.873 36.94 754.772 37.54 754.772 38.1C754.772 39.16 755.133 40.03 755.853 40.71C756.593 41.41 757.573 41.76 758.793 41.76ZM758.522 27.87C759.063 27.87 759.473 27.77 759.753 27.57C760.053 27.35 760.263 26.96 760.383 26.4C760.503 25.84 760.563 25.04 760.563 24C760.563 22.94 760.493 22.13 760.353 21.57C760.233 21.01 760.023 20.62 759.723 20.4C759.443 20.18 759.043 20.07 758.522 20.07C758.023 20.07 757.623 20.18 757.323 20.4C757.043 20.6 756.843 20.98 756.723 21.54C756.623 22.1 756.573 22.91 756.573 23.97C756.573 25.05 756.623 25.87 756.723 26.43C756.843 26.97 757.043 27.35 757.323 27.57C757.623 27.77 758.023 27.87 758.522 27.87ZM773.098 33.36C771.978 33.36 771.058 33.05 770.338 32.43C769.618 31.81 769.258 30.99 769.258 29.97C769.258 29.01 769.588 28.19 770.248 27.51C770.928 26.81 771.878 26.28 773.098 25.92C774.338 25.54 775.788 25.35 777.448 25.35V21.78C777.448 21.26 777.248 20.85 776.848 20.55C776.468 20.25 775.948 20.1 775.288 20.1C774.728 20.1 774.258 20.2 773.878 20.4C773.498 20.6 773.308 20.86 773.308 21.18C773.308 21.42 773.398 21.63 773.578 21.81C773.758 21.97 773.848 22.24 773.848 22.62C773.848 23.1 773.668 23.51 773.308 23.85C772.948 24.17 772.498 24.33 771.958 24.33C771.438 24.33 771.008 24.16 770.668 23.82C770.348 23.48 770.188 23.05 770.188 22.53C770.188 21.89 770.438 21.32 770.938 20.82C771.438 20.3 772.118 19.89 772.978 19.59C773.858 19.29 774.838 19.14 775.918 19.14C777.458 19.14 778.718 19.43 779.698 20.01C780.678 20.57 781.168 21.31 781.168 22.23V31.14C781.168 31.34 781.228 31.51 781.348 31.65C781.488 31.77 781.648 31.83 781.828 31.83C782.008 31.83 782.198 31.75 782.398 31.59C782.618 31.43 782.908 31.15 783.268 30.75L783.778 31.35C782.758 32.69 781.608 33.36 780.328 33.36C779.568 33.36 778.958 33.17 778.498 32.79C778.038 32.41 777.728 31.89 777.568 31.23H777.448C777.068 31.79 776.488 32.29 775.708 32.73C774.928 33.15 774.058 33.36 773.098 33.36ZM775.018 31.71C775.718 31.71 776.298 31.43 776.758 30.87C777.218 30.29 777.448 29.54 777.448 28.62V26.22C776.048 26.22 774.978 26.5 774.238 27.06C773.518 27.6 773.158 28.4 773.158 29.46C773.158 30.14 773.318 30.69 773.638 31.11C773.958 31.51 774.418 31.71 775.018 31.71ZM796.51 32.55V22.17C796.51 20.93 795.98 20.31 794.92 20.31C794.26 20.31 793.66 20.58 793.12 21.12C792.58 21.66 792.14 22.4 791.8 23.34C791.48 24.26 791.32 25.31 791.32 26.49L790.72 21.99H791.44C791.86 21.13 792.44 20.44 793.18 19.92C793.92 19.4 794.87 19.14 796.03 19.14C797.27 19.14 798.28 19.46 799.06 20.1C799.84 20.72 800.23 21.49 800.23 22.41V32.55H796.51ZM785.2 33V32.16H793.27V33H785.2ZM787.6 32.55V19.98H791.32V32.55H787.6ZM794.35 33V32.16H802.18V33H794.35ZM785.2 20.34V19.5H791.32V20.34H785.2ZM809.425 33.39C808.305 33.39 807.475 33.18 806.935 32.76C806.415 32.32 806.155 31.69 806.155 30.87V20.37H803.725V19.5C804.465 19.44 805.155 19.17 805.795 18.69C806.435 18.21 807.015 17.59 807.535 16.83C808.075 16.07 808.515 15.24 808.855 14.34H809.875V19.5H813.325V20.37H809.875V30.51C809.875 31.41 810.255 31.86 811.015 31.86C811.415 31.86 811.775 31.73 812.095 31.47C812.435 31.19 812.795 30.72 813.175 30.06L813.835 30.45C813.315 31.55 812.715 32.32 812.035 32.76C811.355 33.18 810.485 33.39 809.425 33.39ZM13.03 81.55V71.17C13.03 69.93 12.5 69.31 11.44 69.31C10.78 69.31 10.18 69.58 9.64 70.12C9.1 70.66 8.66 71.4 8.32 72.34C8 73.26 7.84 74.31 7.84 75.49L7.24 70.99H7.96C8.38 70.13 8.96 69.44 9.7 68.92C10.44 68.4 11.39 68.14 12.55 68.14C13.79 68.14 14.8 68.46 15.58 69.1C16.36 69.72 16.75 70.49 16.75 71.41V81.55H13.03ZM1.72 82V81.16H9.79V82H1.72ZM4.12 81.55V68.98H7.84V81.55H4.12ZM10.87 82V81.16H18.7V82H10.87ZM1.72 69.34V68.5H7.84V69.34H1.72ZM28.4641 82.39C27.4641 82.39 26.5241 82.19 25.6441 81.79C24.7641 81.39 23.9841 80.85 23.3041 80.17C22.6441 79.49 22.1241 78.73 21.7441 77.89C21.3841 77.03 21.2041 76.13 21.2041 75.19C21.2041 74.01 21.4941 72.89 22.0741 71.83C22.6741 70.75 23.5041 69.87 24.5641 69.19C25.6241 68.49 26.8641 68.14 28.2841 68.14C29.4241 68.14 30.4441 68.38 31.3441 68.86C32.2641 69.34 32.9841 70.03 33.5041 70.93C34.0441 71.81 34.3141 72.84 34.3141 74.02V74.29H24.2041V73.45H30.4441V71.68C30.4441 69.92 29.6841 69.04 28.1641 69.04C27.5241 69.04 27.0041 69.23 26.6041 69.61C26.2241 69.99 25.9441 70.64 25.7641 71.56C25.5841 72.48 25.4941 73.73 25.4941 75.31C25.4941 76.93 25.5841 78.18 25.7641 79.06C25.9641 79.94 26.2841 80.55 26.7241 80.89C27.1841 81.23 27.8041 81.4 28.5841 81.4C29.6441 81.4 30.5841 81.14 31.4041 80.62C32.2241 80.08 32.9141 79.16 33.4741 77.86H34.4041C33.9841 79.24 33.2441 80.34 32.1841 81.16C31.1241 81.98 29.8841 82.39 28.4641 82.39ZM44.8886 82.39C43.9086 82.39 42.9786 82.19 42.0986 81.79C41.2386 81.39 40.4786 80.85 39.8186 80.17C39.1586 79.49 38.6386 78.73 38.2586 77.89C37.8986 77.03 37.7186 76.14 37.7186 75.22C37.7186 74.34 37.8986 73.48 38.2586 72.64C38.6386 71.8 39.1486 71.04 39.7886 70.36C40.4486 69.68 41.2186 69.14 42.0986 68.74C42.9986 68.34 43.9786 68.14 45.0386 68.14C45.9586 68.14 46.7986 68.3 47.5586 68.62C48.3386 68.92 48.9486 69.33 49.3886 69.85C49.8486 70.37 50.0786 70.99 50.0786 71.71C50.0786 72.35 49.8786 72.85 49.4786 73.21C49.0986 73.57 48.5986 73.75 47.9786 73.75C47.4186 73.75 46.9386 73.59 46.5386 73.27C46.1586 72.95 45.9686 72.5 45.9686 71.92C45.9686 71.56 46.0386 71.29 46.1786 71.11C46.3186 70.91 46.4486 70.73 46.5686 70.57C46.7086 70.41 46.7786 70.21 46.7786 69.97C46.7786 69.65 46.6286 69.42 46.3286 69.28C46.0486 69.12 45.6286 69.04 45.0686 69.04C44.4086 69.04 43.8486 69.21 43.3886 69.55C42.9286 69.89 42.5786 70.52 42.3386 71.44C42.1186 72.36 42.0086 73.71 42.0086 75.49C42.0086 77.05 42.0986 78.26 42.2786 79.12C42.4786 79.98 42.8086 80.58 43.2686 80.92C43.7286 81.24 44.3386 81.4 45.0986 81.4C46.1786 81.4 47.0886 81.1 47.8286 80.5C48.5686 79.9 49.2086 78.92 49.7486 77.56H50.6786C50.2786 79 49.5886 80.17 48.6086 81.07C47.6286 81.95 46.3886 82.39 44.8886 82.39ZM64.3223 81.55L59.1623 74.44L62.1023 72.58L68.9723 81.55H64.3223ZM52.8023 82V81.16H60.7223V82H52.8023ZM62.1923 82V81.16H70.2023V82H62.1923ZM55.2023 81.55V59.86H58.9223V81.55H55.2023ZM60.3923 74.53L59.1623 74.44L64.8023 69.04H66.2123L60.3923 74.53ZM52.8023 60.22V59.38H58.9223V60.22H52.8023ZM61.5923 69.34V68.5H68.5523V69.34H61.5923ZM73.0916 81.55V59.86H76.8116V81.55H73.0916ZM70.6916 82V81.16H79.1216V82H70.6916ZM70.6916 60.22V59.38H76.8116V60.22H70.6916ZM85.4359 82.36C84.3159 82.36 83.3959 82.05 82.6759 81.43C81.9559 80.81 81.5959 79.99 81.5959 78.97C81.5959 78.01 81.9259 77.19 82.5859 76.51C83.2659 75.81 84.2159 75.28 85.4359 74.92C86.6759 74.54 88.1259 74.35 89.7859 74.35V70.78C89.7859 70.26 89.5859 69.85 89.1859 69.55C88.8059 69.25 88.2859 69.1 87.6259 69.1C87.0659 69.1 86.5959 69.2 86.2159 69.4C85.8359 69.6 85.6459 69.86 85.6459 70.18C85.6459 70.42 85.7359 70.63 85.9159 70.81C86.0959 70.97 86.1859 71.24 86.1859 71.62C86.1859 72.1 86.0059 72.51 85.6459 72.85C85.2859 73.17 84.8359 73.33 84.2959 73.33C83.7759 73.33 83.3459 73.16 83.0059 72.82C82.6859 72.48 82.5259 72.05 82.5259 71.53C82.5259 70.89 82.7759 70.32 83.2759 69.82C83.7759 69.3 84.4559 68.89 85.3159 68.59C86.1959 68.29 87.1759 68.14 88.2559 68.14C89.7959 68.14 91.0559 68.43 92.0359 69.01C93.0159 69.57 93.5059 70.31 93.5059 71.23V80.14C93.5059 80.34 93.5659 80.51 93.6859 80.65C93.8259 80.77 93.9859 80.83 94.1659 80.83C94.3459 80.83 94.5359 80.75 94.7359 80.59C94.9559 80.43 95.2459 80.15 95.6059 79.75L96.1159 80.35C95.0959 81.69 93.9459 82.36 92.6659 82.36C91.9059 82.36 91.2959 82.17 90.8359 81.79C90.3759 81.41 90.0659 80.89 89.9059 80.23H89.7859C89.4059 80.79 88.8259 81.29 88.0459 81.73C87.2659 82.15 86.3959 82.36 85.4359 82.36ZM87.3559 80.71C88.0559 80.71 88.6359 80.43 89.0959 79.87C89.5559 79.29 89.7859 78.54 89.7859 77.62V75.22C88.3859 75.22 87.3159 75.5 86.5759 76.06C85.8559 76.6 85.4959 77.4 85.4959 78.46C85.4959 79.14 85.6559 79.69 85.9759 80.11C86.2959 80.51 86.7559 80.71 87.3559 80.71ZM105.398 82.39C104.418 82.39 103.488 82.19 102.608 81.79C101.748 81.39 100.988 80.85 100.328 80.17C99.6684 79.49 99.1484 78.73 98.7684 77.89C98.4084 77.03 98.2284 76.14 98.2284 75.22C98.2284 74.34 98.4084 73.48 98.7684 72.64C99.1484 71.8 99.6584 71.04 100.298 70.36C100.958 69.68 101.728 69.14 102.608 68.74C103.508 68.34 104.488 68.14 105.548 68.14C106.468 68.14 107.308 68.3 108.068 68.62C108.848 68.92 109.458 69.33 109.898 69.85C110.358 70.37 110.588 70.99 110.588 71.71C110.588 72.35 110.388 72.85 109.988 73.21C109.608 73.57 109.108 73.75 108.488 73.75C107.928 73.75 107.448 73.59 107.048 73.27C106.668 72.95 106.478 72.5 106.478 71.92C106.478 71.56 106.548 71.29 106.688 71.11C106.828 70.91 106.958 70.73 107.078 70.57C107.218 70.41 107.288 70.21 107.288 69.97C107.288 69.65 107.138 69.42 106.838 69.28C106.558 69.12 106.138 69.04 105.578 69.04C104.918 69.04 104.358 69.21 103.898 69.55C103.438 69.89 103.088 70.52 102.848 71.44C102.628 72.36 102.518 73.71 102.518 75.49C102.518 77.05 102.608 78.26 102.788 79.12C102.988 79.98 103.318 80.58 103.778 80.92C104.238 81.24 104.848 81.4 105.608 81.4C106.688 81.4 107.598 81.1 108.338 80.5C109.078 79.9 109.718 78.92 110.258 77.56H111.188C110.788 79 110.098 80.17 109.118 81.07C108.138 81.95 106.898 82.39 105.398 82.39ZM121.499 82.39C120.499 82.39 119.559 82.19 118.679 81.79C117.799 81.39 117.019 80.85 116.339 80.17C115.679 79.49 115.159 78.73 114.779 77.89C114.419 77.03 114.239 76.13 114.239 75.19C114.239 74.01 114.529 72.89 115.109 71.83C115.709 70.75 116.539 69.87 117.599 69.19C118.659 68.49 119.899 68.14 121.319 68.14C122.459 68.14 123.479 68.38 124.379 68.86C125.299 69.34 126.019 70.03 126.539 70.93C127.079 71.81 127.349 72.84 127.349 74.02V74.29H117.239V73.45H123.479V71.68C123.479 69.92 122.719 69.04 121.199 69.04C120.559 69.04 120.039 69.23 119.639 69.61C119.259 69.99 118.979 70.64 118.799 71.56C118.619 72.48 118.529 73.73 118.529 75.31C118.529 76.93 118.619 78.18 118.799 79.06C118.999 79.94 119.319 80.55 119.759 80.89C120.219 81.23 120.839 81.4 121.619 81.4C122.679 81.4 123.619 81.14 124.439 80.62C125.259 80.08 125.949 79.16 126.509 77.86H127.439C127.019 79.24 126.279 80.34 125.219 81.16C124.159 81.98 122.919 82.39 121.499 82.39ZM136.364 82.36C135.504 82.36 134.684 82.22 133.904 81.94C133.124 81.66 132.484 81.29 131.984 80.83L131.534 82H130.664V77.26H131.624L131.804 77.98C132.044 78.98 132.524 79.78 133.244 80.38C133.984 80.98 135.024 81.28 136.364 81.28C137.344 81.28 138.044 81.12 138.464 80.8C138.904 80.48 139.124 80.01 139.124 79.39C139.124 78.83 138.884 78.39 138.404 78.07C137.924 77.75 137.054 77.46 135.794 77.2C134.854 77.02 134.014 76.77 133.274 76.45C132.554 76.13 131.984 75.68 131.564 75.1C131.164 74.5 130.964 73.69 130.964 72.67C130.964 71.19 131.374 70.07 132.194 69.31C133.034 68.53 134.224 68.14 135.764 68.14C136.644 68.14 137.404 68.26 138.044 68.5C138.704 68.74 139.164 69.07 139.424 69.49L139.754 68.5H140.534V72.85H139.544L139.454 72.4C139.234 71.28 138.854 70.47 138.314 69.97C137.774 69.47 136.934 69.22 135.794 69.22C134.854 69.22 134.144 69.4 133.664 69.76C133.204 70.1 132.974 70.56 132.974 71.14C132.974 71.46 133.054 71.74 133.214 71.98C133.394 72.22 133.724 72.45 134.204 72.67C134.704 72.87 135.404 73.07 136.304 73.27C137.284 73.47 138.134 73.74 138.854 74.08C139.574 74.42 140.134 74.88 140.534 75.46C140.934 76.04 141.134 76.8 141.134 77.74C141.134 79.22 140.694 80.36 139.814 81.16C138.954 81.96 137.804 82.36 136.364 82.36ZM154.401 82.36C153.281 82.36 152.361 82.05 151.641 81.43C150.921 80.81 150.561 79.99 150.561 78.97C150.561 78.01 150.891 77.19 151.551 76.51C152.231 75.81 153.181 75.28 154.401 74.92C155.641 74.54 157.091 74.35 158.751 74.35V70.78C158.751 70.26 158.551 69.85 158.151 69.55C157.771 69.25 157.251 69.1 156.591 69.1C156.031 69.1 155.561 69.2 155.181 69.4C154.801 69.6 154.611 69.86 154.611 70.18C154.611 70.42 154.701 70.63 154.881 70.81C155.061 70.97 155.151 71.24 155.151 71.62C155.151 72.1 154.971 72.51 154.611 72.85C154.251 73.17 153.801 73.33 153.261 73.33C152.741 73.33 152.311 73.16 151.971 72.82C151.651 72.48 151.491 72.05 151.491 71.53C151.491 70.89 151.741 70.32 152.241 69.82C152.741 69.3 153.421 68.89 154.281 68.59C155.161 68.29 156.141 68.14 157.221 68.14C158.761 68.14 160.021 68.43 161.001 69.01C161.981 69.57 162.471 70.31 162.471 71.23V80.14C162.471 80.34 162.531 80.51 162.651 80.65C162.791 80.77 162.951 80.83 163.131 80.83C163.311 80.83 163.501 80.75 163.701 80.59C163.921 80.43 164.211 80.15 164.571 79.75L165.081 80.35C164.061 81.69 162.911 82.36 161.631 82.36C160.871 82.36 160.261 82.17 159.801 81.79C159.341 81.41 159.031 80.89 158.871 80.23H158.751C158.371 80.79 157.791 81.29 157.011 81.73C156.231 82.15 155.361 82.36 154.401 82.36ZM156.321 80.71C157.021 80.71 157.601 80.43 158.061 79.87C158.521 79.29 158.751 78.54 158.751 77.62V75.22C157.351 75.22 156.281 75.5 155.541 76.06C154.821 76.6 154.461 77.4 154.461 78.46C154.461 79.14 154.621 79.69 154.941 80.11C155.261 80.51 155.721 80.71 156.321 80.71ZM177.813 81.55V71.17C177.813 69.93 177.283 69.31 176.223 69.31C175.563 69.31 174.963 69.58 174.423 70.12C173.883 70.66 173.443 71.4 173.103 72.34C172.783 73.26 172.623 74.31 172.623 75.49L172.023 70.99H172.743C173.163 70.13 173.743 69.44 174.483 68.92C175.223 68.4 176.173 68.14 177.333 68.14C178.573 68.14 179.583 68.46 180.363 69.1C181.143 69.72 181.533 70.49 181.533 71.41V81.55H177.813ZM166.503 82V81.16H174.573V82H166.503ZM168.903 81.55V68.98H172.623V81.55H168.903ZM175.653 82V81.16H183.483V82H175.653ZM166.503 69.34V68.5H172.623V69.34H166.503ZM192.167 82.36C191.127 82.36 190.147 82.07 189.227 81.49C188.307 80.89 187.547 80.06 186.947 79C186.367 77.92 186.077 76.67 186.077 75.25C186.077 73.83 186.367 72.59 186.947 71.53C187.527 70.45 188.277 69.62 189.197 69.04C190.117 68.44 191.097 68.14 192.137 68.14C193.077 68.14 193.897 68.34 194.597 68.74C195.317 69.14 195.837 69.64 196.157 70.24H196.877L196.277 74.8C196.277 72.86 195.927 71.45 195.227 70.57C194.547 69.69 193.697 69.25 192.677 69.25C192.117 69.25 191.667 69.41 191.327 69.73C190.987 70.05 190.737 70.65 190.577 71.53C190.417 72.39 190.337 73.64 190.337 75.28C190.337 76.9 190.407 78.15 190.547 79.03C190.707 79.89 190.957 80.48 191.297 80.8C191.637 81.1 192.087 81.25 192.647 81.25C193.667 81.25 194.527 80.81 195.227 79.93C195.927 79.03 196.277 77.62 196.277 75.7L196.877 80.26H196.157C195.837 80.86 195.327 81.36 194.627 81.76C193.927 82.16 193.107 82.36 192.167 82.36ZM196.277 82V81.16H202.217V82H196.277ZM196.277 81.55V59.86H199.997V81.55H196.277ZM193.307 60.22V59.38H199.997V60.22H193.307ZM212.574 81.55V59.86H216.294V81.55H212.574ZM210.174 82V81.16H218.604V82H210.174ZM210.174 60.22V59.38H216.294V60.22H210.174ZM228.428 82.39C227.428 82.39 226.488 82.21 225.608 81.85C224.748 81.47 223.978 80.95 223.298 80.29C222.638 79.63 222.118 78.87 221.738 78.01C221.358 77.15 221.168 76.23 221.168 75.25C221.168 74.27 221.358 73.35 221.738 72.49C222.118 71.63 222.638 70.88 223.298 70.24C223.978 69.58 224.748 69.07 225.608 68.71C226.488 68.33 227.438 68.14 228.458 68.14C229.458 68.14 230.398 68.33 231.278 68.71C232.158 69.07 232.928 69.58 233.588 70.24C234.268 70.88 234.788 71.63 235.148 72.49C235.528 73.35 235.718 74.27 235.718 75.25C235.718 76.23 235.528 77.15 235.148 78.01C234.788 78.87 234.268 79.63 233.588 80.29C232.928 80.95 232.158 81.47 231.278 81.85C230.398 82.21 229.448 82.39 228.428 82.39ZM228.428 81.4C229.168 81.4 229.758 81.24 230.198 80.92C230.638 80.58 230.958 79.97 231.158 79.09C231.358 78.21 231.458 76.94 231.458 75.28C231.458 73.6 231.358 72.32 231.158 71.44C230.958 70.54 230.638 69.93 230.198 69.61C229.758 69.29 229.168 69.13 228.428 69.13C227.708 69.13 227.128 69.29 226.688 69.61C226.268 69.93 225.958 70.54 225.758 71.44C225.558 72.32 225.458 73.6 225.458 75.28C225.458 76.94 225.558 78.21 225.758 79.09C225.958 79.97 226.268 80.58 226.688 80.92C227.128 81.24 227.708 81.4 228.428 81.4ZM249.884 81.55V71.17C249.884 69.93 249.354 69.31 248.294 69.31C247.634 69.31 247.034 69.58 246.494 70.12C245.954 70.66 245.514 71.4 245.174 72.34C244.854 73.26 244.694 74.31 244.694 75.49L244.094 70.99H244.814C245.234 70.13 245.814 69.44 246.554 68.92C247.294 68.4 248.244 68.14 249.404 68.14C250.644 68.14 251.654 68.46 252.434 69.1C253.214 69.72 253.604 70.49 253.604 71.41V81.55H249.884ZM238.574 82V81.16H246.644V82H238.574ZM240.974 81.55V68.98H244.694V81.55H240.974ZM247.724 82V81.16H255.554V82H247.724ZM238.574 69.34V68.5H244.694V69.34H238.574ZM264.328 91.75C263.128 91.75 262.048 91.55 261.088 91.15C260.128 90.77 259.368 90.25 258.808 89.59C258.268 88.95 257.998 88.23 257.998 87.43C257.998 86.65 258.238 85.96 258.718 85.36C259.218 84.78 259.848 84.31 260.608 83.95V83.83C259.808 83.51 259.188 83.09 258.748 82.57C258.328 82.05 258.118 81.37 258.118 80.53C258.118 79.57 258.398 78.8 258.958 78.22C259.518 77.62 260.338 77.24 261.418 77.08C260.658 76.66 260.038 76.1 259.558 75.4C259.098 74.68 258.868 73.88 258.868 73C258.868 72.06 259.118 71.23 259.618 70.51C260.138 69.77 260.828 69.19 261.688 68.77C262.548 68.35 263.478 68.14 264.478 68.14C265.398 68.14 266.248 68.31 267.028 68.65C267.808 68.97 268.458 69.43 268.978 70.03C269.198 69.47 269.508 69.01 269.908 68.65C270.308 68.29 270.788 68.11 271.348 68.11C271.828 68.11 272.238 68.26 272.578 68.56C272.938 68.84 273.118 69.22 273.118 69.7C273.118 70.08 273.008 70.39 272.788 70.63C272.568 70.85 272.258 70.96 271.858 70.96C271.478 70.96 271.218 70.88 271.078 70.72C270.938 70.54 270.818 70.37 270.718 70.21C270.618 70.03 270.438 69.94 270.178 69.94C270.018 69.94 269.888 70.01 269.788 70.15C269.708 70.29 269.648 70.54 269.608 70.9C269.788 71.22 269.918 71.56 269.998 71.92C270.098 72.26 270.148 72.62 270.148 73C270.148 73.92 269.888 74.75 269.368 75.49C268.848 76.23 268.158 76.81 267.298 77.23C266.438 77.63 265.498 77.83 264.478 77.83H262.618C261.718 77.83 260.988 77.99 260.428 78.31C259.888 78.61 259.618 79 259.618 79.48C259.618 79.8 259.758 80.08 260.038 80.32C260.318 80.54 260.718 80.65 261.238 80.65H267.538C268.478 80.65 269.268 80.78 269.908 81.04C270.548 81.28 271.028 81.7 271.348 82.3C271.688 82.9 271.858 83.71 271.858 84.73C271.858 86.23 271.518 87.5 270.838 88.54C270.178 89.6 269.278 90.4 268.138 90.94C267.018 91.48 265.748 91.75 264.328 91.75ZM264.748 90.76C265.708 90.76 266.618 90.55 267.478 90.13C268.338 89.71 269.038 89.13 269.578 88.39C270.118 87.65 270.388 86.8 270.388 85.84C270.388 85.2 270.238 84.72 269.938 84.4C269.638 84.08 269.168 83.92 268.528 83.92H261.838C261.518 84.2 261.248 84.66 261.028 85.3C260.828 85.94 260.728 86.54 260.728 87.1C260.728 88.16 261.088 89.03 261.808 89.71C262.548 90.41 263.528 90.76 264.748 90.76ZM264.478 76.87C265.018 76.87 265.428 76.77 265.708 76.57C266.008 76.35 266.218 75.96 266.338 75.4C266.458 74.84 266.518 74.04 266.518 73C266.518 71.94 266.448 71.13 266.308 70.57C266.188 70.01 265.978 69.62 265.678 69.4C265.398 69.18 264.998 69.07 264.478 69.07C263.978 69.07 263.578 69.18 263.278 69.4C262.998 69.6 262.798 69.98 262.678 70.54C262.578 71.1 262.528 71.91 262.528 72.97C262.528 74.05 262.578 74.87 262.678 75.43C262.798 75.97 262.998 76.35 263.278 76.57C263.578 76.77 263.978 76.87 264.478 76.87ZM285.106 82.36C283.986 82.36 283.066 82.05 282.346 81.43C281.626 80.81 281.266 79.99 281.266 78.97C281.266 78.01 281.596 77.19 282.256 76.51C282.936 75.81 283.886 75.28 285.106 74.92C286.346 74.54 287.796 74.35 289.456 74.35V70.78C289.456 70.26 289.256 69.85 288.856 69.55C288.476 69.25 287.956 69.1 287.296 69.1C286.736 69.1 286.266 69.2 285.886 69.4C285.506 69.6 285.316 69.86 285.316 70.18C285.316 70.42 285.406 70.63 285.586 70.81C285.766 70.97 285.856 71.24 285.856 71.62C285.856 72.1 285.676 72.51 285.316 72.85C284.956 73.17 284.506 73.33 283.966 73.33C283.446 73.33 283.016 73.16 282.676 72.82C282.356 72.48 282.196 72.05 282.196 71.53C282.196 70.89 282.446 70.32 282.946 69.82C283.446 69.3 284.126 68.89 284.986 68.59C285.866 68.29 286.846 68.14 287.926 68.14C289.466 68.14 290.726 68.43 291.706 69.01C292.686 69.57 293.176 70.31 293.176 71.23V80.14C293.176 80.34 293.236 80.51 293.356 80.65C293.496 80.77 293.656 80.83 293.836 80.83C294.016 80.83 294.206 80.75 294.406 80.59C294.626 80.43 294.916 80.15 295.276 79.75L295.786 80.35C294.766 81.69 293.616 82.36 292.336 82.36C291.576 82.36 290.966 82.17 290.506 81.79C290.046 81.41 289.736 80.89 289.576 80.23H289.456C289.076 80.79 288.496 81.29 287.716 81.73C286.936 82.15 286.066 82.36 285.106 82.36ZM287.026 80.71C287.726 80.71 288.306 80.43 288.766 79.87C289.226 79.29 289.456 78.54 289.456 77.62V75.22C288.056 75.22 286.986 75.5 286.246 76.06C285.526 76.6 285.166 77.4 285.166 78.46C285.166 79.14 285.326 79.69 285.646 80.11C285.966 80.51 286.426 80.71 287.026 80.71ZM308.518 81.55V71.17C308.518 69.93 307.988 69.31 306.928 69.31C306.268 69.31 305.668 69.58 305.128 70.12C304.588 70.66 304.148 71.4 303.808 72.34C303.488 73.26 303.328 74.31 303.328 75.49L302.728 70.99H303.448C303.868 70.13 304.448 69.44 305.188 68.92C305.928 68.4 306.878 68.14 308.038 68.14C309.278 68.14 310.288 68.46 311.068 69.1C311.848 69.72 312.238 70.49 312.238 71.41V81.55H308.518ZM297.208 82V81.16H305.278V82H297.208ZM299.608 81.55V68.98H303.328V81.55H299.608ZM306.358 82V81.16H314.188V82H306.358ZM297.208 69.34V68.5H303.328V69.34H297.208ZM322.872 82.36C321.832 82.36 320.852 82.07 319.932 81.49C319.012 80.89 318.252 80.06 317.652 79C317.072 77.92 316.782 76.67 316.782 75.25C316.782 73.83 317.072 72.59 317.652 71.53C318.232 70.45 318.982 69.62 319.902 69.04C320.822 68.44 321.802 68.14 322.842 68.14C323.782 68.14 324.602 68.34 325.302 68.74C326.022 69.14 326.542 69.64 326.862 70.24H327.582L326.982 74.8C326.982 72.86 326.632 71.45 325.932 70.57C325.252 69.69 324.402 69.25 323.382 69.25C322.822 69.25 322.372 69.41 322.032 69.73C321.692 70.05 321.442 70.65 321.282 71.53C321.122 72.39 321.042 73.64 321.042 75.28C321.042 76.9 321.112 78.15 321.252 79.03C321.412 79.89 321.662 80.48 322.002 80.8C322.342 81.1 322.792 81.25 323.352 81.25C324.372 81.25 325.232 80.81 325.932 79.93C326.632 79.03 326.982 77.62 326.982 75.7L327.582 80.26H326.862C326.542 80.86 326.032 81.36 325.332 81.76C324.632 82.16 323.812 82.36 322.872 82.36ZM326.982 82V81.16H332.922V82H326.982ZM326.982 81.55V59.86H330.702V81.55H326.982ZM324.012 60.22V59.38H330.702V60.22H324.012ZM347.389 82.36C346.529 82.36 345.709 82.22 344.929 81.94C344.149 81.66 343.509 81.29 343.009 80.83L342.559 82H341.689V77.26H342.649L342.829 77.98C343.069 78.98 343.549 79.78 344.269 80.38C345.009 80.98 346.049 81.28 347.389 81.28C348.369 81.28 349.069 81.12 349.489 80.8C349.929 80.48 350.149 80.01 350.149 79.39C350.149 78.83 349.909 78.39 349.429 78.07C348.949 77.75 348.079 77.46 346.819 77.2C345.879 77.02 345.039 76.77 344.299 76.45C343.579 76.13 343.009 75.68 342.589 75.1C342.189 74.5 341.989 73.69 341.989 72.67C341.989 71.19 342.399 70.07 343.219 69.31C344.059 68.53 345.249 68.14 346.789 68.14C347.669 68.14 348.429 68.26 349.069 68.5C349.729 68.74 350.189 69.07 350.449 69.49L350.779 68.5H351.559V72.85H350.569L350.479 72.4C350.259 71.28 349.879 70.47 349.339 69.97C348.799 69.47 347.959 69.22 346.819 69.22C345.879 69.22 345.169 69.4 344.689 69.76C344.229 70.1 343.999 70.56 343.999 71.14C343.999 71.46 344.079 71.74 344.239 71.98C344.419 72.22 344.749 72.45 345.229 72.67C345.729 72.87 346.429 73.07 347.329 73.27C348.309 73.47 349.159 73.74 349.879 74.08C350.599 74.42 351.159 74.88 351.559 75.46C351.959 76.04 352.159 76.8 352.159 77.74C352.159 79.22 351.719 80.36 350.839 81.16C349.979 81.96 348.829 82.36 347.389 82.36ZM366.098 81.55V71.32C366.098 70.6 365.948 70.09 365.648 69.79C365.368 69.47 364.978 69.31 364.478 69.31C363.818 69.31 363.198 69.58 362.618 70.12C362.058 70.66 361.618 71.4 361.298 72.34C360.978 73.26 360.818 74.31 360.818 75.49L360.218 70.99H360.938C361.358 70.13 361.938 69.44 362.678 68.92C363.438 68.4 364.398 68.14 365.558 68.14C366.818 68.14 367.838 68.46 368.618 69.1C369.418 69.72 369.818 70.49 369.818 71.41V81.55H366.098ZM354.698 82V81.16H362.768V82H354.698ZM363.938 82V81.16H371.768V82H363.938ZM357.098 81.55V59.86H360.818V81.55H357.098ZM354.698 60.22V59.38H360.818V60.22H354.698ZM381.71 82.39C380.71 82.39 379.77 82.21 378.89 81.85C378.03 81.47 377.26 80.95 376.58 80.29C375.92 79.63 375.4 78.87 375.02 78.01C374.64 77.15 374.45 76.23 374.45 75.25C374.45 74.27 374.64 73.35 375.02 72.49C375.4 71.63 375.92 70.88 376.58 70.24C377.26 69.58 378.03 69.07 378.89 68.71C379.77 68.33 380.72 68.14 381.74 68.14C382.74 68.14 383.68 68.33 384.56 68.71C385.44 69.07 386.21 69.58 386.87 70.24C387.55 70.88 388.07 71.63 388.43 72.49C388.81 73.35 389 74.27 389 75.25C389 76.23 388.81 77.15 388.43 78.01C388.07 78.87 387.55 79.63 386.87 80.29C386.21 80.95 385.44 81.47 384.56 81.85C383.68 82.21 382.73 82.39 381.71 82.39ZM381.71 81.4C382.45 81.4 383.04 81.24 383.48 80.92C383.92 80.58 384.24 79.97 384.44 79.09C384.64 78.21 384.74 76.94 384.74 75.28C384.74 73.6 384.64 72.32 384.44 71.44C384.24 70.54 383.92 69.93 383.48 69.61C383.04 69.29 382.45 69.13 381.71 69.13C380.99 69.13 380.41 69.29 379.97 69.61C379.55 69.93 379.24 70.54 379.04 71.44C378.84 72.32 378.74 73.6 378.74 75.28C378.74 76.94 378.84 78.21 379.04 79.09C379.24 79.97 379.55 80.58 379.97 80.92C380.41 81.24 380.99 81.4 381.71 81.4ZM391.855 82V81.16H394.255V69.34H391.855V68.5H397.975V70.84H398.095C398.675 69.74 399.315 69.02 400.015 68.68C400.715 68.32 401.345 68.14 401.905 68.14C402.685 68.14 403.295 68.35 403.735 68.77C404.175 69.19 404.395 69.79 404.395 70.57C404.395 71.31 404.195 71.86 403.795 72.22C403.395 72.56 402.915 72.73 402.355 72.73C401.875 72.73 401.435 72.59 401.035 72.31C400.655 72.03 400.465 71.63 400.465 71.11C400.465 70.85 400.505 70.65 400.585 70.51C400.665 70.37 400.705 70.25 400.705 70.15C400.705 70.07 400.685 70.01 400.645 69.97C400.605 69.91 400.505 69.88 400.345 69.88C400.065 69.88 399.735 70.09 399.355 70.51C398.975 70.93 398.645 71.48 398.365 72.16C398.105 72.84 397.975 73.59 397.975 74.41V81.16H400.285V82H391.855ZM412.768 82.39C411.648 82.39 410.818 82.18 410.278 81.76C409.758 81.32 409.498 80.69 409.498 79.87V69.37H407.068V68.5C407.808 68.44 408.498 68.17 409.138 67.69C409.778 67.21 410.358 66.59 410.878 65.83C411.418 65.07 411.858 64.24 412.198 63.34H413.218V68.5H416.668V69.37H413.218V79.51C413.218 80.41 413.598 80.86 414.358 80.86C414.758 80.86 415.118 80.73 415.438 80.47C415.778 80.19 416.138 79.72 416.518 79.06L417.178 79.45C416.658 80.55 416.058 81.32 415.378 81.76C414.698 82.18 413.828 82.39 412.768 82.39ZM432.902 82.39C431.922 82.39 430.992 82.19 430.112 81.79C429.252 81.39 428.492 80.85 427.832 80.17C427.172 79.49 426.652 78.73 426.272 77.89C425.912 77.03 425.732 76.14 425.732 75.22C425.732 74.34 425.912 73.48 426.272 72.64C426.652 71.8 427.162 71.04 427.802 70.36C428.462 69.68 429.232 69.14 430.112 68.74C431.012 68.34 431.992 68.14 433.052 68.14C433.972 68.14 434.812 68.3 435.572 68.62C436.352 68.92 436.962 69.33 437.402 69.85C437.862 70.37 438.092 70.99 438.092 71.71C438.092 72.35 437.892 72.85 437.492 73.21C437.112 73.57 436.612 73.75 435.992 73.75C435.432 73.75 434.952 73.59 434.552 73.27C434.172 72.95 433.982 72.5 433.982 71.92C433.982 71.56 434.052 71.29 434.192 71.11C434.332 70.91 434.462 70.73 434.582 70.57C434.722 70.41 434.792 70.21 434.792 69.97C434.792 69.65 434.642 69.42 434.342 69.28C434.062 69.12 433.642 69.04 433.082 69.04C432.422 69.04 431.862 69.21 431.402 69.55C430.942 69.89 430.592 70.52 430.352 71.44C430.132 72.36 430.022 73.71 430.022 75.49C430.022 77.05 430.112 78.26 430.292 79.12C430.492 79.98 430.822 80.58 431.282 80.92C431.742 81.24 432.352 81.4 433.112 81.4C434.192 81.4 435.102 81.1 435.842 80.5C436.582 79.9 437.222 78.92 437.762 77.56H438.692C438.292 79 437.602 80.17 436.622 81.07C435.642 81.95 434.402 82.39 432.902 82.39ZM452.219 81.55V71.32C452.219 70.6 452.069 70.09 451.769 69.79C451.489 69.47 451.099 69.31 450.599 69.31C449.939 69.31 449.319 69.58 448.739 70.12C448.179 70.66 447.739 71.4 447.419 72.34C447.099 73.26 446.939 74.31 446.939 75.49L446.339 70.99H447.059C447.479 70.13 448.059 69.44 448.799 68.92C449.559 68.4 450.519 68.14 451.679 68.14C452.939 68.14 453.959 68.46 454.739 69.1C455.539 69.72 455.939 70.49 455.939 71.41V81.55H452.219ZM440.819 82V81.16H448.889V82H440.819ZM450.059 82V81.16H457.889V82H450.059ZM443.219 81.55V59.86H446.939V81.55H443.219ZM440.819 60.22V59.38H446.939V60.22H440.819ZM464.321 82.36C463.201 82.36 462.281 82.05 461.561 81.43C460.841 80.81 460.481 79.99 460.481 78.97C460.481 78.01 460.811 77.19 461.471 76.51C462.151 75.81 463.101 75.28 464.321 74.92C465.561 74.54 467.011 74.35 468.671 74.35V70.78C468.671 70.26 468.471 69.85 468.071 69.55C467.691 69.25 467.171 69.1 466.511 69.1C465.951 69.1 465.481 69.2 465.101 69.4C464.721 69.6 464.531 69.86 464.531 70.18C464.531 70.42 464.621 70.63 464.801 70.81C464.981 70.97 465.071 71.24 465.071 71.62C465.071 72.1 464.891 72.51 464.531 72.85C464.171 73.17 463.721 73.33 463.181 73.33C462.661 73.33 462.231 73.16 461.891 72.82C461.571 72.48 461.411 72.05 461.411 71.53C461.411 70.89 461.661 70.32 462.161 69.82C462.661 69.3 463.341 68.89 464.201 68.59C465.081 68.29 466.061 68.14 467.141 68.14C468.681 68.14 469.941 68.43 470.921 69.01C471.901 69.57 472.391 70.31 472.391 71.23V80.14C472.391 80.34 472.451 80.51 472.571 80.65C472.711 80.77 472.871 80.83 473.051 80.83C473.231 80.83 473.421 80.75 473.621 80.59C473.841 80.43 474.131 80.15 474.491 79.75L475.001 80.35C473.981 81.69 472.831 82.36 471.551 82.36C470.791 82.36 470.181 82.17 469.721 81.79C469.261 81.41 468.951 80.89 468.791 80.23H468.671C468.291 80.79 467.711 81.29 466.931 81.73C466.151 82.15 465.281 82.36 464.321 82.36ZM466.241 80.71C466.941 80.71 467.521 80.43 467.981 79.87C468.441 79.29 468.671 78.54 468.671 77.62V75.22C467.271 75.22 466.201 75.5 465.461 76.06C464.741 76.6 464.381 77.4 464.381 78.46C464.381 79.14 464.541 79.69 464.861 80.11C465.181 80.51 465.641 80.71 466.241 80.71ZM478.913 81.55V69.1H482.663V81.55H478.913ZM476.513 82V81.16H484.823V82H476.513ZM476.363 69.46V68.62H482.663V69.46H476.363ZM480.623 64.54C480.043 64.54 479.533 64.33 479.093 63.91C478.653 63.47 478.433 62.95 478.433 62.35C478.433 61.75 478.653 61.23 479.093 60.79C479.533 60.35 480.043 60.13 480.623 60.13C481.223 60.13 481.743 60.35 482.183 60.79C482.623 61.23 482.843 61.75 482.843 62.35C482.843 62.95 482.623 63.47 482.183 63.91C481.743 64.33 481.223 64.54 480.623 64.54ZM498.21 81.55V71.17C498.21 69.93 497.68 69.31 496.62 69.31C495.96 69.31 495.36 69.58 494.82 70.12C494.28 70.66 493.84 71.4 493.5 72.34C493.18 73.26 493.02 74.31 493.02 75.49L492.42 70.99H493.14C493.56 70.13 494.14 69.44 494.88 68.92C495.62 68.4 496.57 68.14 497.73 68.14C498.97 68.14 499.98 68.46 500.76 69.1C501.54 69.72 501.93 70.49 501.93 71.41V81.55H498.21ZM486.9 82V81.16H494.97V82H486.9ZM489.3 81.55V68.98H493.02V81.55H489.3ZM496.05 82V81.16H503.88V82H496.05ZM486.9 69.34V68.5H493.02V69.34H486.9ZM512.114 82.36C511.254 82.36 510.434 82.22 509.654 81.94C508.874 81.66 508.234 81.29 507.734 80.83L507.284 82H506.414V77.26H507.374L507.554 77.98C507.794 78.98 508.274 79.78 508.994 80.38C509.734 80.98 510.774 81.28 512.114 81.28C513.094 81.28 513.794 81.12 514.214 80.8C514.654 80.48 514.874 80.01 514.874 79.39C514.874 78.83 514.634 78.39 514.154 78.07C513.674 77.75 512.804 77.46 511.544 77.2C510.604 77.02 509.764 76.77 509.024 76.45C508.304 76.13 507.734 75.68 507.314 75.1C506.914 74.5 506.714 73.69 506.714 72.67C506.714 71.19 507.124 70.07 507.944 69.31C508.784 68.53 509.974 68.14 511.514 68.14C512.394 68.14 513.154 68.26 513.794 68.5C514.454 68.74 514.914 69.07 515.174 69.49L515.504 68.5H516.284V72.85H515.294L515.204 72.4C514.984 71.28 514.604 70.47 514.064 69.97C513.524 69.47 512.684 69.22 511.544 69.22C510.604 69.22 509.894 69.4 509.414 69.76C508.954 70.1 508.724 70.56 508.724 71.14C508.724 71.46 508.804 71.74 508.964 71.98C509.144 72.22 509.474 72.45 509.954 72.67C510.454 72.87 511.154 73.07 512.054 73.27C513.034 73.47 513.884 73.74 514.604 74.08C515.324 74.42 515.884 74.88 516.284 75.46C516.684 76.04 516.884 76.8 516.884 77.74C516.884 79.22 516.444 80.36 515.564 81.16C514.704 81.96 513.554 82.36 512.114 82.36ZM528.321 82V67.63C528.321 65.83 528.551 64.29 529.011 63.01C529.471 61.73 530.141 60.75 531.021 60.07C531.901 59.37 532.961 59.02 534.201 59.02C535.341 59.02 536.231 59.28 536.871 59.8C537.531 60.3 537.861 60.93 537.861 61.69C537.861 62.25 537.681 62.7 537.321 63.04C536.981 63.38 536.531 63.55 535.971 63.55C535.511 63.55 535.121 63.42 534.801 63.16C534.481 62.88 534.321 62.5 534.321 62.02C534.321 61.72 534.361 61.49 534.441 61.33C534.541 61.17 534.641 61.03 534.741 60.91C534.841 60.79 534.891 60.64 534.891 60.46C534.891 60.1 534.611 59.92 534.051 59.92C533.431 59.92 532.941 60.17 532.581 60.67C532.241 61.15 532.071 62.02 532.071 63.28V82H528.321ZM525.681 82V81.16H535.281V82H525.681ZM525.651 69.49V68.65H535.521V69.49H525.651ZM544.606 82.39C543.606 82.39 542.666 82.21 541.786 81.85C540.926 81.47 540.156 80.95 539.476 80.29C538.816 79.63 538.296 78.87 537.916 78.01C537.536 77.15 537.346 76.23 537.346 75.25C537.346 74.27 537.536 73.35 537.916 72.49C538.296 71.63 538.816 70.88 539.476 70.24C540.156 69.58 540.926 69.07 541.786 68.71C542.666 68.33 543.616 68.14 544.636 68.14C545.636 68.14 546.576 68.33 547.456 68.71C548.336 69.07 549.106 69.58 549.766 70.24C550.446 70.88 550.966 71.63 551.326 72.49C551.706 73.35 551.896 74.27 551.896 75.25C551.896 76.23 551.706 77.15 551.326 78.01C550.966 78.87 550.446 79.63 549.766 80.29C549.106 80.95 548.336 81.47 547.456 81.85C546.576 82.21 545.626 82.39 544.606 82.39ZM544.606 81.4C545.346 81.4 545.936 81.24 546.376 80.92C546.816 80.58 547.136 79.97 547.336 79.09C547.536 78.21 547.636 76.94 547.636 75.28C547.636 73.6 547.536 72.32 547.336 71.44C547.136 70.54 546.816 69.93 546.376 69.61C545.936 69.29 545.346 69.13 544.606 69.13C543.886 69.13 543.306 69.29 542.866 69.61C542.446 69.93 542.136 70.54 541.936 71.44C541.736 72.32 541.636 73.6 541.636 75.28C541.636 76.94 541.736 78.21 541.936 79.09C542.136 79.97 542.446 80.58 542.866 80.92C543.306 81.24 543.886 81.4 544.606 81.4ZM554.751 82V81.16H557.151V69.34H554.751V68.5H560.871V70.84H560.991C561.571 69.74 562.211 69.02 562.911 68.68C563.611 68.32 564.241 68.14 564.801 68.14C565.581 68.14 566.191 68.35 566.631 68.77C567.071 69.19 567.291 69.79 567.291 70.57C567.291 71.31 567.091 71.86 566.691 72.22C566.291 72.56 565.811 72.73 565.251 72.73C564.771 72.73 564.331 72.59 563.931 72.31C563.551 72.03 563.361 71.63 563.361 71.11C563.361 70.85 563.401 70.65 563.481 70.51C563.561 70.37 563.601 70.25 563.601 70.15C563.601 70.07 563.581 70.01 563.541 69.97C563.501 69.91 563.401 69.88 563.241 69.88C562.961 69.88 562.631 70.09 562.251 70.51C561.871 70.93 561.541 71.48 561.261 72.16C561.001 72.84 560.871 73.59 560.871 74.41V81.16H563.181V82H554.751ZM589.921 81.55V71.17C589.921 69.93 589.411 69.31 588.391 69.31C587.771 69.31 587.191 69.58 586.651 70.12C586.111 70.66 585.681 71.4 585.361 72.34C585.061 73.26 584.911 74.31 584.911 75.49L584.311 70.99H585.031C585.431 70.13 585.991 69.44 586.711 68.92C587.451 68.4 588.381 68.14 589.501 68.14C590.721 68.14 591.711 68.46 592.471 69.1C593.251 69.72 593.641 70.49 593.641 71.41V81.55H589.921ZM570.061 82V81.16H578.161V82H570.061ZM572.461 81.55V68.98H576.211V81.55H572.461ZM579.061 82V81.16H586.891V82H579.061ZM570.061 69.34V68.5H576.211V69.34H570.061ZM581.221 81.55V71.17C581.221 69.93 580.711 69.31 579.691 69.31C579.051 69.31 578.461 69.58 577.921 70.12C577.401 70.66 576.981 71.4 576.661 72.34C576.361 73.26 576.211 74.31 576.211 75.49L575.611 70.99H576.301C576.701 70.13 577.261 69.44 577.981 68.92C578.721 68.4 579.651 68.14 580.771 68.14C582.011 68.14 583.011 68.46 583.771 69.1C584.551 69.72 584.941 70.49 584.941 71.41V81.55H581.221ZM587.761 82V81.16H595.621V82H587.761ZM608.227 82.36C607.107 82.36 606.187 82.05 605.467 81.43C604.747 80.81 604.387 79.99 604.387 78.97C604.387 78.01 604.717 77.19 605.377 76.51C606.057 75.81 607.007 75.28 608.227 74.92C609.467 74.54 610.917 74.35 612.577 74.35V70.78C612.577 70.26 612.377 69.85 611.977 69.55C611.597 69.25 611.077 69.1 610.417 69.1C609.857 69.1 609.387 69.2 609.007 69.4C608.627 69.6 608.437 69.86 608.437 70.18C608.437 70.42 608.527 70.63 608.707 70.81C608.887 70.97 608.977 71.24 608.977 71.62C608.977 72.1 608.797 72.51 608.437 72.85C608.077 73.17 607.627 73.33 607.087 73.33C606.567 73.33 606.137 73.16 605.797 72.82C605.477 72.48 605.317 72.05 605.317 71.53C605.317 70.89 605.567 70.32 606.067 69.82C606.567 69.3 607.247 68.89 608.107 68.59C608.987 68.29 609.967 68.14 611.047 68.14C612.587 68.14 613.847 68.43 614.827 69.01C615.807 69.57 616.297 70.31 616.297 71.23V80.14C616.297 80.34 616.357 80.51 616.477 80.65C616.617 80.77 616.777 80.83 616.957 80.83C617.137 80.83 617.327 80.75 617.527 80.59C617.747 80.43 618.037 80.15 618.397 79.75L618.907 80.35C617.887 81.69 616.737 82.36 615.457 82.36C614.697 82.36 614.087 82.17 613.627 81.79C613.167 81.41 612.857 80.89 612.697 80.23H612.577C612.197 80.79 611.617 81.29 610.837 81.73C610.057 82.15 609.187 82.36 608.227 82.36ZM610.147 80.71C610.847 80.71 611.427 80.43 611.887 79.87C612.347 79.29 612.577 78.54 612.577 77.62V75.22C611.177 75.22 610.107 75.5 609.367 76.06C608.647 76.6 608.287 77.4 608.287 78.46C608.287 79.14 608.447 79.69 608.767 80.11C609.087 80.51 609.547 80.71 610.147 80.71ZM636.518 82.36C635.598 82.36 634.788 82.16 634.088 81.76C633.388 81.36 632.868 80.86 632.528 80.26H631.808L632.408 75.7C632.408 77.62 632.748 79.03 633.428 79.93C634.128 80.81 634.998 81.25 636.038 81.25C636.578 81.25 637.018 81.09 637.358 80.77C637.698 80.45 637.938 79.86 638.078 79C638.238 78.14 638.318 76.91 638.318 75.31C638.318 73.67 638.238 72.41 638.078 71.53C637.918 70.65 637.668 70.05 637.328 69.73C636.988 69.41 636.548 69.25 636.008 69.25C634.968 69.25 634.108 69.69 633.428 70.57C632.748 71.45 632.408 72.86 632.408 74.8L631.808 70.24H632.528C632.868 69.64 633.388 69.14 634.088 68.74C634.808 68.34 635.628 68.14 636.548 68.14C637.588 68.14 638.568 68.44 639.488 69.04C640.408 69.62 641.148 70.45 641.708 71.53C642.268 72.59 642.548 73.83 642.548 75.25C642.548 76.67 642.258 77.92 641.678 79C641.118 80.06 640.378 80.89 639.458 81.49C638.538 82.07 637.558 82.36 636.518 82.36ZM626.528 91.42V90.58H635.408V91.42H626.528ZM628.688 90.97V68.98H632.408V90.97H628.688ZM626.288 69.34V68.5H632.408V69.34H626.288ZM649.911 82.36C648.791 82.36 647.871 82.05 647.151 81.43C646.431 80.81 646.071 79.99 646.071 78.97C646.071 78.01 646.401 77.19 647.061 76.51C647.741 75.81 648.691 75.28 649.911 74.92C651.151 74.54 652.601 74.35 654.261 74.35V70.78C654.261 70.26 654.061 69.85 653.661 69.55C653.281 69.25 652.761 69.1 652.101 69.1C651.541 69.1 651.071 69.2 650.691 69.4C650.311 69.6 650.121 69.86 650.121 70.18C650.121 70.42 650.211 70.63 650.391 70.81C650.571 70.97 650.661 71.24 650.661 71.62C650.661 72.1 650.481 72.51 650.121 72.85C649.761 73.17 649.311 73.33 648.771 73.33C648.251 73.33 647.821 73.16 647.481 72.82C647.161 72.48 647.001 72.05 647.001 71.53C647.001 70.89 647.251 70.32 647.751 69.82C648.251 69.3 648.931 68.89 649.791 68.59C650.671 68.29 651.651 68.14 652.731 68.14C654.271 68.14 655.531 68.43 656.511 69.01C657.491 69.57 657.981 70.31 657.981 71.23V80.14C657.981 80.34 658.041 80.51 658.161 80.65C658.301 80.77 658.461 80.83 658.641 80.83C658.821 80.83 659.011 80.75 659.211 80.59C659.431 80.43 659.721 80.15 660.081 79.75L660.591 80.35C659.571 81.69 658.421 82.36 657.141 82.36C656.381 82.36 655.771 82.17 655.311 81.79C654.851 81.41 654.541 80.89 654.381 80.23H654.261C653.881 80.79 653.301 81.29 652.521 81.73C651.741 82.15 650.871 82.36 649.911 82.36ZM651.831 80.71C652.531 80.71 653.111 80.43 653.571 79.87C654.031 79.29 654.261 78.54 654.261 77.62V75.22C652.861 75.22 651.791 75.5 651.051 76.06C650.331 76.6 649.971 77.4 649.971 78.46C649.971 79.14 650.131 79.69 650.451 80.11C650.771 80.51 651.231 80.71 651.831 80.71ZM662.013 82V81.16H664.413V69.34H662.013V68.5H668.133V70.84H668.253C668.833 69.74 669.473 69.02 670.173 68.68C670.873 68.32 671.503 68.14 672.063 68.14C672.843 68.14 673.453 68.35 673.893 68.77C674.333 69.19 674.553 69.79 674.553 70.57C674.553 71.31 674.353 71.86 673.953 72.22C673.553 72.56 673.073 72.73 672.513 72.73C672.033 72.73 671.593 72.59 671.193 72.31C670.813 72.03 670.623 71.63 670.623 71.11C670.623 70.85 670.663 70.65 670.743 70.51C670.823 70.37 670.863 70.25 670.863 70.15C670.863 70.07 670.843 70.01 670.803 69.97C670.763 69.91 670.663 69.88 670.503 69.88C670.223 69.88 669.893 70.09 669.513 70.51C669.133 70.93 668.803 71.48 668.523 72.16C668.263 72.84 668.133 73.59 668.133 74.41V81.16H670.443V82H662.013ZM682.926 82.39C681.806 82.39 680.976 82.18 680.436 81.76C679.916 81.32 679.656 80.69 679.656 79.87V69.37H677.226V68.5C677.966 68.44 678.656 68.17 679.296 67.69C679.936 67.21 680.516 66.59 681.036 65.83C681.576 65.07 682.016 64.24 682.356 63.34H683.376V68.5H686.826V69.37H683.376V79.51C683.376 80.41 683.756 80.86 684.516 80.86C684.916 80.86 685.276 80.73 685.596 80.47C685.936 80.19 686.296 79.72 686.676 79.06L687.336 79.45C686.816 80.55 686.216 81.32 685.536 81.76C684.856 82.18 683.986 82.39 682.926 82.39ZM703.09 82.39C702.09 82.39 701.15 82.21 700.27 81.85C699.41 81.47 698.64 80.95 697.96 80.29C697.3 79.63 696.78 78.87 696.4 78.01C696.02 77.15 695.83 76.23 695.83 75.25C695.83 74.27 696.02 73.35 696.4 72.49C696.78 71.63 697.3 70.88 697.96 70.24C698.64 69.58 699.41 69.07 700.27 68.71C701.15 68.33 702.1 68.14 703.12 68.14C704.12 68.14 705.06 68.33 705.94 68.71C706.82 69.07 707.59 69.58 708.25 70.24C708.93 70.88 709.45 71.63 709.81 72.49C710.19 73.35 710.38 74.27 710.38 75.25C710.38 76.23 710.19 77.15 709.81 78.01C709.45 78.87 708.93 79.63 708.25 80.29C707.59 80.95 706.82 81.47 705.94 81.85C705.06 82.21 704.11 82.39 703.09 82.39ZM703.09 81.4C703.83 81.4 704.42 81.24 704.86 80.92C705.3 80.58 705.62 79.97 705.82 79.09C706.02 78.21 706.12 76.94 706.12 75.28C706.12 73.6 706.02 72.32 705.82 71.44C705.62 70.54 705.3 69.93 704.86 69.61C704.42 69.29 703.83 69.13 703.09 69.13C702.37 69.13 701.79 69.29 701.35 69.61C700.93 69.93 700.62 70.54 700.42 71.44C700.22 72.32 700.12 73.6 700.12 75.28C700.12 76.94 700.22 78.21 700.42 79.09C700.62 79.97 700.93 80.58 701.35 80.92C701.79 81.24 702.37 81.4 703.09 81.4ZM715.375 82V67.63C715.375 65.83 715.605 64.29 716.065 63.01C716.525 61.73 717.195 60.75 718.075 60.07C718.955 59.37 720.015 59.02 721.255 59.02C722.395 59.02 723.285 59.28 723.925 59.8C724.585 60.3 724.915 60.93 724.915 61.69C724.915 62.25 724.735 62.7 724.375 63.04C724.035 63.38 723.585 63.55 723.025 63.55C722.565 63.55 722.175 63.42 721.855 63.16C721.535 62.88 721.375 62.5 721.375 62.02C721.375 61.72 721.415 61.49 721.495 61.33C721.595 61.17 721.695 61.03 721.795 60.91C721.895 60.79 721.945 60.64 721.945 60.46C721.945 60.1 721.665 59.92 721.105 59.92C720.485 59.92 719.995 60.17 719.635 60.67C719.295 61.15 719.125 62.02 719.125 63.28V82H715.375ZM712.735 82V81.16H722.335V82H712.735ZM712.705 69.49V68.65H722.575V69.49H712.705ZM738.299 82.39C737.299 82.39 736.359 82.21 735.479 81.85C734.619 81.47 733.849 80.95 733.169 80.29C732.509 79.63 731.989 78.87 731.609 78.01C731.229 77.15 731.039 76.23 731.039 75.25C731.039 74.27 731.229 73.35 731.609 72.49C731.989 71.63 732.509 70.88 733.169 70.24C733.849 69.58 734.619 69.07 735.479 68.71C736.359 68.33 737.309 68.14 738.329 68.14C739.329 68.14 740.269 68.33 741.149 68.71C742.029 69.07 742.799 69.58 743.459 70.24C744.139 70.88 744.659 71.63 745.019 72.49C745.399 73.35 745.589 74.27 745.589 75.25C745.589 76.23 745.399 77.15 745.019 78.01C744.659 78.87 744.139 79.63 743.459 80.29C742.799 80.95 742.029 81.47 741.149 81.85C740.269 82.21 739.319 82.39 738.299 82.39ZM738.299 81.4C739.039 81.4 739.629 81.24 740.069 80.92C740.509 80.58 740.829 79.97 741.029 79.09C741.229 78.21 741.329 76.94 741.329 75.28C741.329 73.6 741.229 72.32 741.029 71.44C740.829 70.54 740.509 69.93 740.069 69.61C739.629 69.29 739.039 69.13 738.299 69.13C737.579 69.13 736.999 69.29 736.559 69.61C736.139 69.93 735.829 70.54 735.629 71.44C735.429 72.32 735.329 73.6 735.329 75.28C735.329 76.94 735.429 78.21 735.629 79.09C735.829 79.97 736.139 80.58 736.559 80.92C736.999 81.24 737.579 81.4 738.299 81.4ZM754.295 82.39C753.115 82.39 752.155 82.07 751.415 81.43C750.695 80.77 750.335 79.99 750.335 79.09V68.95H754.055V78.82C754.055 79.6 754.185 80.17 754.445 80.53C754.705 80.89 755.085 81.07 755.585 81.07C756.245 81.07 756.825 80.81 757.325 80.29C757.845 79.77 758.255 79.06 758.555 78.16C758.875 77.26 759.035 76.25 759.035 75.13L759.635 79.63H758.915C758.515 80.45 757.915 81.12 757.115 81.64C756.335 82.14 755.395 82.39 754.295 82.39ZM759.035 82V81.16H765.125V82H759.035ZM747.995 69.34V68.5H754.055V69.34H747.995ZM759.035 81.55V68.95H762.755V81.55H759.035ZM756.575 69.34V68.5H762.755V69.34H756.575ZM766.949 82V81.16H769.349V69.34H766.949V68.5H773.069V70.84H773.189C773.769 69.74 774.409 69.02 775.109 68.68C775.809 68.32 776.439 68.14 776.999 68.14C777.779 68.14 778.389 68.35 778.829 68.77C779.269 69.19 779.489 69.79 779.489 70.57C779.489 71.31 779.289 71.86 778.889 72.22C778.489 72.56 778.009 72.73 777.449 72.73C776.969 72.73 776.529 72.59 776.129 72.31C775.749 72.03 775.559 71.63 775.559 71.11C775.559 70.85 775.599 70.65 775.679 70.51C775.759 70.37 775.799 70.25 775.799 70.15C775.799 70.07 775.779 70.01 775.739 69.97C775.699 69.91 775.599 69.88 775.439 69.88C775.159 69.88 774.829 70.09 774.449 70.51C774.069 70.93 773.739 71.48 773.459 72.16C773.199 72.84 773.069 73.59 773.069 74.41V81.16H775.379V82H766.949ZM8.47 131.36C7.43 131.36 6.45 131.07 5.53 130.49C4.61 129.89 3.85 129.06 3.25 128C2.67 126.92 2.38 125.67 2.38 124.25C2.38 122.83 2.67 121.59 3.25 120.53C3.83 119.45 4.58 118.62 5.5 118.04C6.42 117.44 7.4 117.14 8.44 117.14C9.38 117.14 10.2 117.34 10.9 117.74C11.62 118.14 12.14 118.64 12.46 119.24H13.18L12.58 123.8C12.58 121.86 12.23 120.45 11.53 119.57C10.85 118.69 10 118.25 8.98 118.25C8.42 118.25 7.97 118.41 7.63 118.73C7.29 119.05 7.04 119.65 6.88 120.53C6.72 121.39 6.64 122.64 6.64 124.28C6.64 125.9 6.71 127.15 6.85 128.03C7.01 128.89 7.26 129.48 7.6 129.8C7.94 130.1 8.39 130.25 8.95 130.25C9.97 130.25 10.83 129.81 11.53 128.93C12.23 128.03 12.58 126.62 12.58 124.7L13.18 129.26H12.46C12.14 129.86 11.63 130.36 10.93 130.76C10.23 131.16 9.41 131.36 8.47 131.36ZM12.58 131V130.16H18.52V131H12.58ZM12.58 130.55V108.86H16.3V130.55H12.58ZM9.61 109.22V108.38H16.3V109.22H9.61ZM28.2883 131.39C27.2883 131.39 26.3483 131.19 25.4683 130.79C24.5883 130.39 23.8083 129.85 23.1283 129.17C22.4683 128.49 21.9483 127.73 21.5683 126.89C21.2083 126.03 21.0283 125.13 21.0283 124.19C21.0283 123.01 21.3183 121.89 21.8983 120.83C22.4983 119.75 23.3283 118.87 24.3883 118.19C25.4483 117.49 26.6883 117.14 28.1083 117.14C29.2483 117.14 30.2683 117.38 31.1683 117.86C32.0883 118.34 32.8083 119.03 33.3283 119.93C33.8683 120.81 34.1383 121.84 34.1383 123.02V123.29H24.0283V122.45H30.2683V120.68C30.2683 118.92 29.5083 118.04 27.9883 118.04C27.3483 118.04 26.8283 118.23 26.4283 118.61C26.0483 118.99 25.7683 119.64 25.5883 120.56C25.4083 121.48 25.3183 122.73 25.3183 124.31C25.3183 125.93 25.4083 127.18 25.5883 128.06C25.7883 128.94 26.1083 129.55 26.5483 129.89C27.0083 130.23 27.6283 130.4 28.4083 130.4C29.4683 130.4 30.4083 130.14 31.2283 129.62C32.0483 129.08 32.7383 128.16 33.2983 126.86H34.2283C33.8083 128.24 33.0683 129.34 32.0083 130.16C30.9483 130.98 29.7083 131.39 28.2883 131.39ZM43.1528 131.36C42.2928 131.36 41.4728 131.22 40.6928 130.94C39.9128 130.66 39.2728 130.29 38.7728 129.83L38.3228 131H37.4528V126.26H38.4128L38.5928 126.98C38.8328 127.98 39.3128 128.78 40.0328 129.38C40.7728 129.98 41.8128 130.28 43.1528 130.28C44.1328 130.28 44.8328 130.12 45.2528 129.8C45.6928 129.48 45.9128 129.01 45.9128 128.39C45.9128 127.83 45.6728 127.39 45.1928 127.07C44.7128 126.75 43.8428 126.46 42.5828 126.2C41.6428 126.02 40.8028 125.77 40.0628 125.45C39.3428 125.13 38.7728 124.68 38.3528 124.1C37.9528 123.5 37.7528 122.69 37.7528 121.67C37.7528 120.19 38.1628 119.07 38.9828 118.31C39.8228 117.53 41.0128 117.14 42.5528 117.14C43.4328 117.14 44.1928 117.26 44.8328 117.5C45.4928 117.74 45.9528 118.07 46.2128 118.49L46.5428 117.5H47.3228V121.85H46.3328L46.2428 121.4C46.0228 120.28 45.6428 119.47 45.1028 118.97C44.5628 118.47 43.7228 118.22 42.5828 118.22C41.6428 118.22 40.9328 118.4 40.4528 118.76C39.9928 119.1 39.7628 119.56 39.7628 120.14C39.7628 120.46 39.8428 120.74 40.0028 120.98C40.1828 121.22 40.5128 121.45 40.9928 121.67C41.4928 121.87 42.1928 122.07 43.0928 122.27C44.0728 122.47 44.9228 122.74 45.6428 123.08C46.3628 123.42 46.9228 123.88 47.3228 124.46C47.7228 125.04 47.9228 125.8 47.9228 126.74C47.9228 128.22 47.4828 129.36 46.6028 130.16C45.7428 130.96 44.5928 131.36 43.1528 131.36ZM53.0713 130.55V118.1H56.8213V130.55H53.0713ZM50.6713 131V130.16H58.9813V131H50.6713ZM50.5213 118.46V117.62H56.8213V118.46H50.5213ZM54.7813 113.54C54.2013 113.54 53.6913 113.33 53.2513 112.91C52.8113 112.47 52.5913 111.95 52.5913 111.35C52.5913 110.75 52.8113 110.23 53.2513 109.79C53.6913 109.35 54.2013 109.13 54.7813 109.13C55.3813 109.13 55.9013 109.35 56.3413 109.79C56.7813 110.23 57.0013 110.75 57.0013 111.35C57.0013 111.95 56.7813 112.47 56.3413 112.91C55.9013 113.33 55.3813 113.54 54.7813 113.54ZM61.0579 131V130.16H63.4579V118.34H61.0579V117.5H67.1779V119.84H67.2979C67.8779 118.74 68.5179 118.02 69.2179 117.68C69.9179 117.32 70.5479 117.14 71.1079 117.14C71.8879 117.14 72.4979 117.35 72.9379 117.77C73.3779 118.19 73.5979 118.79 73.5979 119.57C73.5979 120.31 73.3979 120.86 72.9979 121.22C72.5979 121.56 72.1179 121.73 71.5579 121.73C71.0779 121.73 70.6379 121.59 70.2379 121.31C69.8579 121.03 69.6679 120.63 69.6679 120.11C69.6679 119.85 69.7079 119.65 69.7879 119.51C69.8679 119.37 69.9079 119.25 69.9079 119.15C69.9079 119.07 69.8879 119.01 69.8479 118.97C69.8079 118.91 69.7079 118.88 69.5479 118.88C69.2679 118.88 68.9379 119.09 68.5579 119.51C68.1779 119.93 67.8479 120.48 67.5679 121.16C67.3079 121.84 67.1779 122.59 67.1779 123.41V130.16H69.4879V131H61.0579ZM80.0746 131.36C78.9546 131.36 78.0346 131.05 77.3146 130.43C76.5946 129.81 76.2346 128.99 76.2346 127.97C76.2346 127.01 76.5646 126.19 77.2246 125.51C77.9046 124.81 78.8546 124.28 80.0746 123.92C81.3146 123.54 82.7646 123.35 84.4246 123.35V119.78C84.4246 119.26 84.2246 118.85 83.8246 118.55C83.4446 118.25 82.9246 118.1 82.2646 118.1C81.7046 118.1 81.2346 118.2 80.8546 118.4C80.4746 118.6 80.2846 118.86 80.2846 119.18C80.2846 119.42 80.3746 119.63 80.5546 119.81C80.7346 119.97 80.8246 120.24 80.8246 120.62C80.8246 121.1 80.6446 121.51 80.2846 121.85C79.9246 122.17 79.4746 122.33 78.9346 122.33C78.4146 122.33 77.9846 122.16 77.6446 121.82C77.3246 121.48 77.1646 121.05 77.1646 120.53C77.1646 119.89 77.4146 119.32 77.9146 118.82C78.4146 118.3 79.0946 117.89 79.9546 117.59C80.8346 117.29 81.8146 117.14 82.8946 117.14C84.4346 117.14 85.6946 117.43 86.6746 118.01C87.6546 118.57 88.1446 119.31 88.1446 120.23V129.14C88.1446 129.34 88.2046 129.51 88.3246 129.65C88.4646 129.77 88.6246 129.83 88.8046 129.83C88.9846 129.83 89.1746 129.75 89.3746 129.59C89.5946 129.43 89.8846 129.15 90.2446 128.75L90.7546 129.35C89.7346 130.69 88.5846 131.36 87.3046 131.36C86.5446 131.36 85.9346 131.17 85.4746 130.79C85.0146 130.41 84.7046 129.89 84.5446 129.23H84.4246C84.0446 129.79 83.4646 130.29 82.6846 130.73C81.9046 131.15 81.0346 131.36 80.0746 131.36ZM81.9946 129.71C82.6946 129.71 83.2746 129.43 83.7346 128.87C84.1946 128.29 84.4246 127.54 84.4246 126.62V124.22C83.0246 124.22 81.9546 124.5 81.2146 125.06C80.4946 125.6 80.1346 126.4 80.1346 127.46C80.1346 128.14 80.2946 128.69 80.6146 129.11C80.9346 129.51 81.3946 129.71 81.9946 129.71ZM102.047 131.36C101.127 131.36 100.317 131.16 99.617 130.76C98.917 130.36 98.397 129.86 98.057 129.26H97.337L97.937 124.7C97.937 126.62 98.277 128.03 98.957 128.93C99.657 129.81 100.527 130.25 101.567 130.25C102.107 130.25 102.547 130.1 102.887 129.8C103.227 129.48 103.467 128.89 103.607 128.03C103.767 127.15 103.847 125.91 103.847 124.31C103.847 122.65 103.767 121.39 103.607 120.53C103.447 119.65 103.197 119.05 102.857 118.73C102.517 118.41 102.077 118.25 101.537 118.25C100.497 118.25 99.637 118.7 98.957 119.6C98.277 120.5 97.937 121.9 97.937 123.8L97.337 119.24H98.057C98.397 118.64 98.917 118.14 99.617 117.74C100.337 117.34 101.157 117.14 102.077 117.14C103.137 117.14 104.117 117.44 105.017 118.04C105.937 118.62 106.677 119.45 107.237 120.53C107.817 121.59 108.107 122.83 108.107 124.25C108.107 125.67 107.817 126.92 107.237 128C106.677 129.06 105.937 129.89 105.017 130.49C104.097 131.07 103.107 131.36 102.047 131.36ZM91.817 131V130.16H97.937V131H91.817ZM94.217 130.55V108.86H97.937V130.55H94.217ZM91.817 109.22V108.38H97.937V109.22H91.817ZM113.105 130.55V108.86H116.825V130.55H113.105ZM110.705 131V130.16H119.135V131H110.705ZM110.705 109.22V108.38H116.825V109.22H110.705ZM128.9 131.39C127.9 131.39 126.96 131.19 126.08 130.79C125.2 130.39 124.42 129.85 123.74 129.17C123.08 128.49 122.56 127.73 122.18 126.89C121.82 126.03 121.64 125.13 121.64 124.19C121.64 123.01 121.93 121.89 122.51 120.83C123.11 119.75 123.94 118.87 125 118.19C126.06 117.49 127.3 117.14 128.72 117.14C129.86 117.14 130.88 117.38 131.78 117.86C132.7 118.34 133.42 119.03 133.94 119.93C134.48 120.81 134.75 121.84 134.75 123.02V123.29H124.64V122.45H130.88V120.68C130.88 118.92 130.12 118.04 128.6 118.04C127.96 118.04 127.44 118.23 127.04 118.61C126.66 118.99 126.38 119.64 126.2 120.56C126.02 121.48 125.93 122.73 125.93 124.31C125.93 125.93 126.02 127.18 126.2 128.06C126.4 128.94 126.72 129.55 127.16 129.89C127.62 130.23 128.24 130.4 129.02 130.4C130.08 130.4 131.02 130.14 131.84 129.62C132.66 129.08 133.35 128.16 133.91 126.86H134.84C134.42 128.24 133.68 129.34 132.62 130.16C131.56 130.98 130.32 131.39 128.9 131.39ZM151.553 131.39C150.573 131.39 149.643 131.19 148.763 130.79C147.903 130.39 147.143 129.85 146.483 129.17C145.823 128.49 145.303 127.73 144.923 126.89C144.563 126.03 144.383 125.14 144.383 124.22C144.383 123.34 144.563 122.48 144.923 121.64C145.303 120.8 145.813 120.04 146.453 119.36C147.113 118.68 147.883 118.14 148.763 117.74C149.663 117.34 150.643 117.14 151.703 117.14C152.623 117.14 153.463 117.3 154.223 117.62C155.003 117.92 155.613 118.33 156.053 118.85C156.513 119.37 156.743 119.99 156.743 120.71C156.743 121.35 156.543 121.85 156.143 122.21C155.763 122.57 155.263 122.75 154.643 122.75C154.083 122.75 153.603 122.59 153.203 122.27C152.823 121.95 152.633 121.5 152.633 120.92C152.633 120.56 152.703 120.29 152.843 120.11C152.983 119.91 153.113 119.73 153.233 119.57C153.373 119.41 153.443 119.21 153.443 118.97C153.443 118.65 153.293 118.42 152.993 118.28C152.713 118.12 152.293 118.04 151.733 118.04C151.073 118.04 150.513 118.21 150.053 118.55C149.593 118.89 149.243 119.52 149.003 120.44C148.783 121.36 148.673 122.71 148.673 124.49C148.673 126.05 148.763 127.26 148.943 128.12C149.143 128.98 149.473 129.58 149.933 129.92C150.393 130.24 151.003 130.4 151.763 130.4C152.843 130.4 153.753 130.1 154.493 129.5C155.233 128.9 155.873 127.92 156.413 126.56H157.343C156.943 128 156.253 129.17 155.273 130.07C154.293 130.95 153.053 131.39 151.553 131.39ZM167.714 131.39C166.714 131.39 165.774 131.21 164.894 130.85C164.034 130.47 163.264 129.95 162.584 129.29C161.924 128.63 161.404 127.87 161.024 127.01C160.644 126.15 160.454 125.23 160.454 124.25C160.454 123.27 160.644 122.35 161.024 121.49C161.404 120.63 161.924 119.88 162.584 119.24C163.264 118.58 164.034 118.07 164.894 117.71C165.774 117.33 166.724 117.14 167.744 117.14C168.744 117.14 169.684 117.33 170.564 117.71C171.444 118.07 172.214 118.58 172.874 119.24C173.554 119.88 174.074 120.63 174.434 121.49C174.814 122.35 175.004 123.27 175.004 124.25C175.004 125.23 174.814 126.15 174.434 127.01C174.074 127.87 173.554 128.63 172.874 129.29C172.214 129.95 171.444 130.47 170.564 130.85C169.684 131.21 168.734 131.39 167.714 131.39ZM167.714 130.4C168.454 130.4 169.044 130.24 169.484 129.92C169.924 129.58 170.244 128.97 170.444 128.09C170.644 127.21 170.744 125.94 170.744 124.28C170.744 122.6 170.644 121.32 170.444 120.44C170.244 119.54 169.924 118.93 169.484 118.61C169.044 118.29 168.454 118.13 167.714 118.13C166.994 118.13 166.414 118.29 165.974 118.61C165.554 118.93 165.244 119.54 165.044 120.44C164.844 121.32 164.744 122.6 164.744 124.28C164.744 125.94 164.844 127.21 165.044 128.09C165.244 128.97 165.554 129.58 165.974 129.92C166.414 130.24 166.994 130.4 167.714 130.4ZM180.049 130.55V108.86H183.769V130.55H180.049ZM177.649 131V130.16H186.079V131H177.649ZM177.649 109.22V108.38H183.769V109.22H177.649ZM190.203 130.55V108.86H193.923V130.55H190.203ZM187.803 131V130.16H196.233V131H187.803ZM187.803 109.22V108.38H193.923V109.22H187.803ZM205.997 131.39C204.997 131.39 204.057 131.19 203.177 130.79C202.297 130.39 201.517 129.85 200.837 129.17C200.177 128.49 199.657 127.73 199.277 126.89C198.917 126.03 198.737 125.13 198.737 124.19C198.737 123.01 199.027 121.89 199.607 120.83C200.207 119.75 201.037 118.87 202.097 118.19C203.157 117.49 204.397 117.14 205.817 117.14C206.957 117.14 207.977 117.38 208.877 117.86C209.797 118.34 210.517 119.03 211.037 119.93C211.577 120.81 211.847 121.84 211.847 123.02V123.29H201.737V122.45H207.977V120.68C207.977 118.92 207.217 118.04 205.697 118.04C205.057 118.04 204.537 118.23 204.137 118.61C203.757 118.99 203.477 119.64 203.297 120.56C203.117 121.48 203.027 122.73 203.027 124.31C203.027 125.93 203.117 127.18 203.297 128.06C203.497 128.94 203.817 129.55 204.257 129.89C204.717 130.23 205.337 130.4 206.117 130.4C207.177 130.4 208.117 130.14 208.937 129.62C209.757 129.08 210.447 128.16 211.007 126.86H211.937C211.517 128.24 210.777 129.34 209.717 130.16C208.657 130.98 207.417 131.39 205.997 131.39ZM222.422 131.39C221.442 131.39 220.512 131.19 219.632 130.79C218.772 130.39 218.012 129.85 217.352 129.17C216.692 128.49 216.172 127.73 215.792 126.89C215.432 126.03 215.252 125.14 215.252 124.22C215.252 123.34 215.432 122.48 215.792 121.64C216.172 120.8 216.682 120.04 217.322 119.36C217.982 118.68 218.752 118.14 219.632 117.74C220.532 117.34 221.512 117.14 222.572 117.14C223.492 117.14 224.332 117.3 225.092 117.62C225.872 117.92 226.482 118.33 226.922 118.85C227.382 119.37 227.612 119.99 227.612 120.71C227.612 121.35 227.412 121.85 227.012 122.21C226.632 122.57 226.132 122.75 225.512 122.75C224.952 122.75 224.472 122.59 224.072 122.27C223.692 121.95 223.502 121.5 223.502 120.92C223.502 120.56 223.572 120.29 223.712 120.11C223.852 119.91 223.982 119.73 224.102 119.57C224.242 119.41 224.312 119.21 224.312 118.97C224.312 118.65 224.162 118.42 223.862 118.28C223.582 118.12 223.162 118.04 222.602 118.04C221.942 118.04 221.382 118.21 220.922 118.55C220.462 118.89 220.112 119.52 219.872 120.44C219.652 121.36 219.542 122.71 219.542 124.49C219.542 126.05 219.632 127.26 219.812 128.12C220.012 128.98 220.342 129.58 220.802 129.92C221.262 130.24 221.872 130.4 222.632 130.4C223.712 130.4 224.622 130.1 225.362 129.5C226.102 128.9 226.742 127.92 227.282 126.56H228.212C227.812 128 227.122 129.17 226.142 130.07C225.162 130.95 223.922 131.39 222.422 131.39ZM236.003 131.39C234.883 131.39 234.053 131.18 233.513 130.76C232.993 130.32 232.733 129.69 232.733 128.87V118.37H230.303V117.5C231.043 117.44 231.733 117.17 232.373 116.69C233.013 116.21 233.593 115.59 234.113 114.83C234.653 114.07 235.093 113.24 235.433 112.34H236.453V117.5H239.903V118.37H236.453V128.51C236.453 129.41 236.833 129.86 237.593 129.86C237.993 129.86 238.353 129.73 238.673 129.47C239.013 129.19 239.373 128.72 239.753 128.06L240.413 128.45C239.893 129.55 239.293 130.32 238.613 130.76C237.933 131.18 237.063 131.39 236.003 131.39ZM244.538 130.55V118.1H248.288V130.55H244.538ZM242.138 131V130.16H250.448V131H242.138ZM241.988 118.46V117.62H248.288V118.46H241.988ZM246.248 113.54C245.668 113.54 245.158 113.33 244.718 112.91C244.278 112.47 244.058 111.95 244.058 111.35C244.058 110.75 244.278 110.23 244.718 109.79C245.158 109.35 245.668 109.13 246.248 109.13C246.848 109.13 247.368 109.35 247.808 109.79C248.248 110.23 248.468 110.75 248.468 111.35C248.468 111.95 248.248 112.47 247.808 112.91C247.368 113.33 246.848 113.54 246.248 113.54ZM260.415 131.39C259.415 131.39 258.475 131.21 257.595 130.85C256.735 130.47 255.965 129.95 255.285 129.29C254.625 128.63 254.105 127.87 253.725 127.01C253.345 126.15 253.155 125.23 253.155 124.25C253.155 123.27 253.345 122.35 253.725 121.49C254.105 120.63 254.625 119.88 255.285 119.24C255.965 118.58 256.735 118.07 257.595 117.71C258.475 117.33 259.425 117.14 260.445 117.14C261.445 117.14 262.385 117.33 263.265 117.71C264.145 118.07 264.915 118.58 265.575 119.24C266.255 119.88 266.775 120.63 267.135 121.49C267.515 122.35 267.705 123.27 267.705 124.25C267.705 125.23 267.515 126.15 267.135 127.01C266.775 127.87 266.255 128.63 265.575 129.29C264.915 129.95 264.145 130.47 263.265 130.85C262.385 131.21 261.435 131.39 260.415 131.39ZM260.415 130.4C261.155 130.4 261.745 130.24 262.185 129.92C262.625 129.58 262.945 128.97 263.145 128.09C263.345 127.21 263.445 125.94 263.445 124.28C263.445 122.6 263.345 121.32 263.145 120.44C262.945 119.54 262.625 118.93 262.185 118.61C261.745 118.29 261.155 118.13 260.415 118.13C259.695 118.13 259.115 118.29 258.675 118.61C258.255 118.93 257.945 119.54 257.745 120.44C257.545 121.32 257.445 122.6 257.445 124.28C257.445 125.94 257.545 127.21 257.745 128.09C257.945 128.97 258.255 129.58 258.675 129.92C259.115 130.24 259.695 130.4 260.415 130.4ZM281.87 130.55V120.17C281.87 118.93 281.34 118.31 280.28 118.31C279.62 118.31 279.02 118.58 278.48 119.12C277.94 119.66 277.5 120.4 277.16 121.34C276.84 122.26 276.68 123.31 276.68 124.49L276.08 119.99H276.8C277.22 119.13 277.8 118.44 278.54 117.92C279.28 117.4 280.23 117.14 281.39 117.14C282.63 117.14 283.64 117.46 284.42 118.1C285.2 118.72 285.59 119.49 285.59 120.41V130.55H281.87ZM270.56 131V130.16H278.63V131H270.56ZM272.96 130.55V117.98H276.68V130.55H272.96ZM279.71 131V130.16H287.54V131H279.71ZM270.56 118.34V117.5H276.68V118.34H270.56ZM292.504 131.39C291.844 131.39 291.274 131.15 290.794 130.67C290.334 130.19 290.104 129.62 290.104 128.96C290.104 128.3 290.334 127.74 290.794 127.28C291.274 126.8 291.844 126.56 292.504 126.56C293.164 126.56 293.724 126.8 294.184 127.28C294.664 127.76 294.904 128.33 294.904 128.99C294.904 129.63 294.664 130.19 294.184 130.67C293.724 131.15 293.164 131.39 292.504 131.39Z" fill="#787054"/>
</svg>
